<?xml version="1.0" standalone="no"?>
<!DOCTYPE svg PUBLIC "-//W3C//DTD SVG 1.1//EN" "http://www.w3.org/Graphics/SVG/1.1/DTD/svg11.dtd" >
<svg xmlns="http://www.w3.org/2000/svg">
<metadata>Generated by Syncfusion Metro Studio</metadata>
<defs>
<font id="cachyglyphs" horiz-adv-x="1024" >
<font-face units-per-em="1024" ascent="819" descent="-205" />
<missing-glyph horiz-adv-x="1024" />

<glyph unicode="&#xe700;" glyph-name="locker" d="M458.9,513.4C458.9,488.5 477.6,469.8 502.5,469.8 527.4,469.8 546.1,488.5 546.1,513.4 546.1,538.3 527.4,557 502.5,557 477.6,557 458.9,538.3 458.9,513.4z M281.3,553.9C281.3,541.4,275.1,532.1,265.7,529L268.8,463.6 237.6,463.6 240.7,529C231.4,532.1 225.1,541.5 225.1,553.9 225.1,569.5 237.6,581.9 253.1,581.9 268.9,581.9 281.3,569.5 281.3,553.9z M658.3,513.4C658.3,426.2 586.6,357.6 502.5,357.6 415.3,357.6 346.7,426.2 346.7,513.4 346.7,600.6 418.4,669.2 502.5,669.2 586.6,669.2 658.3,600.6 658.3,513.4z M172.3,824.9L172.3,183.2C172.3,173.9,178.5,167.6,187.9,167.6L817.2,167.6C826.5,167.6,832.8,173.8,832.8,183.2L832.8,298.5 764.3,298.5 764.3,373.3 832.8,373.3 832.8,631.9 764.3,631.9 764.3,706.7 832.8,706.7 832.8,825.1C832.8,834.4,826.6,840.7,817.2,840.7L187.9,840.7C178.5,840.5,172.3,834.3,172.3,824.9z M845.2,874.8C854.5,874.8,860.8,868.5,860.8,859.2L860.8,709.7 932.5,709.7 932.5,631.8 860.8,631.8 860.8,373.2 932.5,373.2 932.5,298.4 860.8,298.4 860.8,152C860.8,142.7,854.6,136.4,845.2,136.4L153.6,136.4C144.3,136.4,138,142.6,138,152L138,859.2C138,865.5,144.2,874.8,153.6,874.8L845.2,874.8z M13.4,980.7L13.4,27.4C13.4,15,22.7,5.6,35.2,2.5L969.8,2.5C982.2,2.5,991.6,11.8,991.6,24.3L991.6,980.7C991.6,993.2,982.3,1002.5,969.8,1002.5L35.2,1002.5C22.7,1002.5,13.4,993.2,13.4,980.7z" />

<glyph unicode="&#xe701;" glyph-name="login-01" d="M13.6,206.9C0.3,193.5 -6.7,60 26.7,26.6 60.1,-6.7 193.6,0.300000000000001 206.9,13.6L228.7,35.4 316.1,35.4C333.3,35.4,347.3,49.4,347.3,66.6L347.3,152.3 433,152.3C450.2,152.3,464.2,166.3,464.2,183.5L464.2,269.2 549.9,269.2C567.1,269.2,581.1,283.2,581.1,300.4L581.1,354.6C531.2,371.6,486.3,399.1,448.8,434.6L147.2,132.9C133.9,119.6 112.2,119.6 98.9,132.9 85.6,146.2 85.6,167.9 98.9,181.2L403.7,486.1C387.9,508,374.2,531.5,363.6,556.7L13.6,206.9z M896.9,795.3C896.9,739.3 851.5,693.9 795.5,693.9 739.5,693.9 694.1,739.3 694.1,795.3 694.1,851.3 739.5,896.7 795.5,896.7 851.5,896.7 896.9,851.3 896.9,795.3z M393.5,697.9C393.5,529.7 529.8,393.4 698,393.4 866.1,393.4 1002.5,529.7 1002.5,697.9 1002.5,866.1 866.2,1002.4 698,1002.4 529.9,1002.4 393.5,866.1 393.5,697.9z" />

<glyph unicode="&#xe702;" glyph-name="user-login" d="M237,712.1C237,587.7 293.1,461.2 367.3,383.2 396.3,305.1 344.5,276.1 333.7,272 183.8,216.2 8,114.6 8,14.2L8,2.5 997,2.5 997,14.2C997,117.6 820.3,218.4 663.1,272 655.9,274.4 610.6,295.4 638.9,384L638.5,384C712.3,462.2 768.7,588.2 768.7,712.1 768.7,902.6 645.6,1002.5 502.5,1002.5 359.4,1002.5 237,902.6 237,712.1z" />

<glyph unicode="&#xe703;" glyph-name="add-new" d="M381.5,1002.5L381.5,623.5 2.5,623.5 2.5,381.5 381.5,381.5 381.5,2.6 623.5,2.6 623.5,381.5 1002.5,381.5 1002.5,623.5 623.5,623.5 623.5,1002.5 381.5,1002.5 381.5,1002.5z" />

<glyph unicode="&#xe704;" glyph-name="recycle-bin" d="M488.4,250.2L488.4,149.8C441.4,149.8 378.7,137.2 356.7,174.9 344.2,200 356.7,231.3 372.4,250.2L488.4,250.2z M557.4,253.3L629.5,253.3C638.9,237.6 648.3,225.1 648.3,203.1 648.3,162.3 610.7,143.5 560.5,149.8L560.5,109.1C541.7,137.3 526,168.7 510.3,196.8 526,228.2 544.8,253.2 560.5,284.6 560.5,275.2 560.5,262.7 557.4,253.3z M428.8,303.4C419.4,309.7 413.1,315.9 403.7,319.1 381.7,287.8 366.1,256.4 347.3,225 347.3,215.6 341,206.2 344.2,193.7 331.6,215.6 312.9,247 300.3,272.1 294,281.5 284.6,294 284.6,306.6 284.6,328.6 306.5,347.3 315.9,369.3 309.6,375.6 297.1,378.7 287.7,388.1 322.2,388.1 353.5,388.1 384.9,391.2 400.6,359.9 416.3,331.7 428.8,303.4z M698.4,341.1C704.7,328.6 710.9,322.3 710.9,309.8 710.9,294.1 689,265.9 682.7,253.4 670.1,231.5 660.7,215.8 651.3,197 648.2,234.6 629.4,262.8 613.7,291.1 598,316.2 585.5,338.1 572.9,363.2 604.2,378.9 632.5,394.5 660.6,413.4 673.4,394.3 689,359.9 698.4,341.1z M500.9,482.1C482.1,447.6 460.1,413.1 441.3,378.7 413.1,397.5 381.7,413.2 353.6,428.9 359.8,441.4 369.3,457.1 378.7,472.8 394.4,497.9 406.9,532.4 447.7,535.5 482.1,535.4 494.7,510.3 500.9,482.1z M604.4,529.2C616.9,516.6 620.1,494.7 632.6,479 645.1,482.1 651.4,491.5 663.9,494.7 648.2,466.5 629.4,435.1 613.7,406.9L516.5,406.9C522.8,413.2 535.3,416.3 541.6,422.6 529.1,450.8 510.3,488.4 494.6,513.5 488.3,522.9 482.1,532.3 469.5,535.4L538.5,535.4C541.6,535.4 544.8,535.4 551,538.6 569.9,538.6 595,538.6 604.4,529.2z M196.9,84C196.9,40.1,231.4,2.5,275.3,2.5L733,2.5C776.9,2.5,811.3,37,811.3,84L861.5,685.9 140.5,685.9 196.9,84z M638.9,955.5C651.4,955.5 664,943 664,927.3 664,911.6 654.6,899.1 638.9,899.1L363,899.1C350.4,899.1 337.9,911.6 337.9,927.3 337.9,943 347.3,955.5 363,955.5L638.9,955.5z M275.2,927.3L228.2,927.3C168.6,927.3,118.5,877.1,118.5,811.3L118.5,764.3C118.5,758,118.5,748.6,121.7,742.4L883.5,742.4C886.6,748.7,886.6,758.1,886.6,764.3L886.6,811.3C886.6,874,836.4,927.3,776.9,927.3L729.9,927.3C723.6,971.2,689.1,1002.5,645.3,1002.5L356.7,1002.5C316,1002.5,278.4,971.2,275.2,927.3z" />

<glyph unicode="&#xe705;" glyph-name="command-undo" d="M262.8,684.2C224.4,637.9,194.5,584.1,173.2,525.8L35.8,712 2.5,192 419.1,192 275.4,386.9C287.2,455.8 315,519.2 357,570.1 413.6,638.7 488.9,676.4 569.1,676.4 649.2,676.4 724.5,638.8 781.1,570.1 837.9,501.4 869.1,410.2 869.1,313.1 869.1,261.8 860.2,212.4 843.6,166.8L985,166.8C996.3,213.8 1002.4,262.9 1002.4,313.1 1002.4,453.3 957.3,585.2 875.5,684.2 793.8,783.5 685,838.2 569.3,838.2 453.6,838.2 344.6,783.5 262.8,684.2z" />

<glyph unicode="&#xe706;" glyph-name="new" d="M408.8,736.9L177.5,893.1 286.9,640 2.5,633.8 243.1,493.2 18.1,327.6 299.4,346.4 218.1,83.7 433.7,261.8 527.5,2.5 593.1,265 824.4,108.7 718.1,361.9 1002.5,368.2 761.9,511.9 986.9,677.5 705.6,658.7 786.9,921.2 571.3,743.1 477.5,1002.5 408.8,736.9z" />

<glyph unicode="&#xe707;" glyph-name="in" d="M2.5,482.2L318.1,166.6 318.1,335.3C318.1,335.3 865,500.9 1002.5,166.6 1002.5,251 952.5,669.7 318.1,669.7L318.1,838.5 2.5,482.2z" />

<glyph unicode="&#xe708;" glyph-name="check" d="M385.1,486C365.6,469.8 333.9,432.4 322.1,431.8 316.8,431.6 254.5,460.1 245.3,464.5 179.6,496 133.3,522.9 79,552.2 47.9,538.9 22.4,521.8 2.5,501 120.1,404.1 219.3,294.8 331.1,194 512.9,403.7 716.3,617.1 961.2,780.9 977.8,792 1007.7,802.6 1001.7,811L902.7,811C729.3,734.8,526.4,602.8,385.1,486z" />

<glyph unicode="&#xe709;" glyph-name="lock" d="M574.6,334.8C574.6,309.7,558.9,284.7,537,275.3L537,184.4 483.7,184.4 483.7,275.3C461.8,284.7 446.1,309.8 446.1,334.8 446.1,372.4 477.4,400.6 511.9,400.6 546.4,400.7 577.7,372.5 574.6,334.8z M665.5,751.8L665.5,657.8C665.5,645.2,665.5,635.9,662.3,623.3L345.8,623.3C342.7,635.9,342.7,645.2,342.7,657.8L342.7,751.8C342.7,849 414.8,927.3 502.5,927.3 593.4,927.3 665.5,848.9 665.5,751.8z M286.2,767.4L286.2,642 286.2,620.1C226.6,601.3,179.6,541.7,179.6,469.6L179.6,153.1C179.6,68.5,242.3,-0.5,320.6,2.59999999999999L684.2,2.59999999999999C762.5,2.59999999999999,825.2,71.6,825.2,156.2L825.2,469.6C825.2,541.7,781.3,604.4,718.6,620.1L718.6,642 718.6,767.4C718.6,895.9 621.4,1002.5 502.3,1002.5 383.2,1002.5 286.2,895.9 286.2,767.4z" />

<glyph unicode="&#xe70a;" glyph-name="up-arrow---01" d="M509.5,806.3L2.5,458.1 2.5,194.1 513.7,545 1002.6,194 1002.6,458.1 517.8,806.3 516.7,811.1 513.7,809.1 510.6,811.1 509.5,806.3z" />

<glyph unicode="&#xe70b;" glyph-name="expander-down---01" d="M2.5,808.7L2.5,554.5 506.1,194 1002.5,548.5 1002.5,807.3 506,452.7 5.2,811 2.5,808.7z" />

<glyph unicode="&#xe70c;" glyph-name="circle-remove--01" d="M186.9,440L815,440 815,561.9 186.9,561.9 186.9,440z M905.6,502.5C905.6,280.6 724.4,99.4 502.5,99.4 280.6,99.4 99.4,280.6 99.4,502.5 99.4,724.4 280.6,905.6 502.5,905.6 724.4,905.6 905.6,724.4 905.6,502.5z M2.5,502.5C2.5,227.5 227.5,2.5 502.5,2.5 777.5,2.5 1002.5,227.5 1002.5,502.5 1002.5,777.5 777.5,1002.5 502.5,1002.5 227.5,1002.5 2.5,777.5 2.5,502.5z" />

<glyph unicode="&#xe70d;" glyph-name="circle-add--03" d="M440,561.9L186.9,561.9 186.9,440 440,440 440,186.9 561.9,186.9 561.9,440 815,440 815,561.9 561.9,561.9 561.9,815 440,815 440,561.9z M905.6,502.5C905.6,280.6 724.4,99.4 502.5,99.4 280.6,99.4 99.4,280.7 99.4,502.5 99.4,724.3 280.6,905.6 502.5,905.6 724.4,905.6 905.6,724.4 905.6,502.5z M2.5,502.5C2.5,227.5 227.5,2.5 502.5,2.5 777.5,2.5 1002.5,227.5 1002.5,502.5 1002.5,777.5 777.5,1002.5 502.5,1002.5 227.5,1002.5 2.5,777.5 2.5,502.5z" />

<glyph unicode="&#xe70e;" glyph-name="google-drive" d="M371.5,356.8L204.4,75.8 838.7,75.8 1002.5,357.8 371.5,356.8z M2.5,373L170.1,94.9 488.2,628.2 318.7,908.2 2.5,373z M665.3,397.8L1000.6,397.8 686.3,929.2 351.1,929.2 665.3,397.8z" />

<glyph unicode="&#xe70f;" glyph-name="gmail" d="M505,434.7L505.3,434.5 577.7,485 859.2,320.4 859.2,200.4 157.3,200.4 157.3,314.1 425.5,490.4 505,434.7z M410,501.3L157.2,334.3 157.8,678.6 410,501.3z M859.2,341.7L592.4,495.9 859.2,682.5 859.2,341.7z M814.2,804.5L516.5,568.8 501.7,557.2 427.5,618.1 199.6,805.6 814.2,804.5z M2.5,194L1002.5,194 1002.5,811 822.2,811 192.9,811 2.5,811 2.5,194z" />

<glyph unicode="&#xe710;" glyph-name="android" d="M231.6,470.8L231.9,470.8 231.9,236.6C231.9,218.7,246.4,204.2,264.3,204.2L333.6,204.2 333.6,60.1C333.6,28.4 359.4,2.5 391.2,2.5 423.1,2.5 449,28.3 449,60.1L449,204.2 556.3,204.2 556.3,60.1C556.3,28.4 582.1,2.5 614.1,2.5 646,2.5 671.7,28.3 671.7,60.1L671.7,204.2 741,204.2C759,204.2,773.4,218.7,773.4,236.6L773.4,470.8 773.4,661.6 773.4,694 741,694 264.3,694 231.6,694 231.6,470.8z M802.6,655L802.6,395.8C802.6,363.9 828.4,338.1 860.2,338.1 892.1,338.1 918,363.9 918,395.8L918,655C918,686.8 892.2,712.6 860.2,712.6 828.5,712.6 802.6,686.7 802.6,655z M87,655L87,395.8C87,363.9 112.8,338.1 144.7,338.1 176.6,338.1 202.3,363.9 202.3,395.8L202.3,655C202.3,686.8 176.6,712.6 144.7,712.6 112.8,712.6 87,686.7 87,655z M653,843.3C653,825.5 638.5,810.9 620.6,810.9 602.7,810.9 588.2,825.4 588.2,843.3 588.2,861.2 602.7,875.7 620.6,875.7 638.5,875.7 653,861.2 653,843.3z M416.8,843.3C416.8,825.5 402.3,810.9 384.4,810.9 366.5,810.9 352,825.4 352,843.3 352,861.2 366.5,875.7 384.4,875.7 402.3,875.7 416.8,861.2 416.8,843.3z M328.4,1000.8C325.7,998.9,324.4,996.2,325.4,994.9L371.2,930.2C237.5,871.2,233.7,726.1,233.7,726.1L771.5,726.1C771.5,726.1,765.9,869.8,633.3,929.3L679.6,994.9C680.7,996.2 679.3,998.9 676.6,1000.8 674,1002.6 671,1003.1 670.1,1001.8L622.2,934.1C589.8,946.9 550.4,954.7 502.5,954.9 454.3,955.1 414.9,947.4 382.3,935L334.9,1001.8C334.5,1002.3 333.9,1002.5 333.1,1002.5 331.9,1002.5 330.1,1001.9 328.4,1000.8z" />

<glyph unicode="&#xe711;" glyph-name="google-search" d="M503.6,398.3C423,392.9 361,340.9 365,282.1 369,223.2 437.6,180.1 518.1,185.5 598.5,190.9 660.7,243 656.7,301.9 653,357 592.4,398.4 518.5,398.8 513.6,398.8 508.6,398.7 503.6,398.3z M471.8,798.9C423.8,785.8 399.8,720.7 418,653.6 436.3,586.4 490,542.5 538,555.6 586,568.7 610.1,633.6 591.8,701 575.7,759.8 532.7,800.7 490,801.3 483.9,801.3 477.8,800.6 471.8,798.9z M719.6,835.6C719.6,805.9 630.4,816.3 630.4,800.5 681,777.7 686.9,739.1 686.9,674.9 686.9,568.1 586.8,554.9 586.8,509.4 586.8,463.9 719.6,427.6 719.6,314.9 719.6,126.6 486.8,137.3 486.8,137.3 486.8,137.3 285.5,130 285.5,281.6 285.5,433 513.9,427.1 525.5,427.1 522.6,461.7 499.5,456 499.5,473.1L499.5,515.5C499.5,515.5 326.7,496.2 326.7,663.4 326.7,830.8 524.5,835.6 524.5,835.6L719.6,835.6z M2.5,861.9L2.5,143.1C2.5,80.5,53.1,30,115.5,30L889.3,30C951.9,30,1002.5,80.6,1002.5,143.1L1002.5,861.9C1002.5,924.4,951.9,975,889.3,975L115.5,975C53.1,975,2.5,924.4,2.5,861.9z" />

<glyph unicode="&#xe712;" glyph-name="chrome" d="M342.4,496.1C342.4,407.1 414.5,335 503.5,335 592.5,335 664.6,407.2 664.6,496.1 664.6,585.1 592.5,657.2 503.5,657.2 414.5,657.2 342.4,585.1 342.4,496.1z M501.2,1002.4C208.1,990.8,90.7,786.7,87.1,780.4L87.1,780.3 79.2,767.5C-86.3,490.1 67.6,249.6 67.6,249.6 219.2,9.8 445,2.7 465.9,2.5L466.7,2.5 532.9,278.1 528.4,277.5C519.1,276.3 509.6,275.7 500,275.7 398,275.7 311.9,344.1 285.4,437.4L284.7,440.2 282.7,443.7C238.1,520.8,89.9,780.6,89.9,780.6L292.6,580.5 294.4,585.1C314.5,632.6,350.6,671.6,396,695.5L397,696 397.2,696.1C437.2,718.6 469,719.9 475.1,720 475.8,720 476.1,720 476.1,720L477.4,720 477.6,720 482.8,720.5C488.5,720.9 494.2,721.2 500,721.2 506.1,721.2 512.2,721 518.2,720.5L522.6,720.1 524.1,720.1 538.5,720.1 542,720.1 541.3,720.3C618.8,720.6,948.1,720.3,948.1,720.3L675.4,640.5 679.8,634.7C685.4,627.1 690.6,619.4 695.8,611.8 706.3,589.2 713.2,568.1 717.4,548.8L717.8,546.8 718.4,544.3C719.6,538.4,720.6,532.5,721.4,526.4L721.9,521.5 721.9,521.3 721.9,521 722.3,517.4 722.5,514.9 722.7,512.7 722.9,508.2 722.9,508.1 722.9,508.1 723.1,504.4C723.7,485.5,721.8,469.2,719.1,456L718,451.3 717.7,449.9C709.9,415.2,694.1,383.7,672.2,357.2L668.8,353.2 667.6,351 667.4,350.7 666.9,349.8C627.8,281.3,485.6,34.3,468,3.7L467.3,2.5 467.3,2.5C467.3,2.5,467.4,2.6,467.4,2.7L467.5,2.9 481.6,2.5C805,-1.8 936.7,251.5 936.7,251.5 1068.9,502.4 962.2,701.2 951.9,719.3L951.6,719.9 952.1,719.9C808.1,992.6 546.3,1002.6 506.3,1002.5 503,1002.5 501.2,1002.4 501.2,1002.4z" />

<glyph unicode="&#xe713;" glyph-name="youtube1" d="M792.2,354.2C786.2,350.3,783.2,345.5,783.2,339.6L781.7,312.8 847.6,312.8 849.2,339.6C849.2,345.9 845.9,350.8 839.8,354.5 833.5,358.1 825.9,360 817.1,360L814.1,360C805.4,360,798.2,358.1,792.2,354.2z M579.2,364.1C573.1,360.7,570,356.7,570,352.3L570,224.9C570,220.6 573.1,216.7 579.2,213.4 585.5,210.1 592.6,208.4 600.6,208.4 608.6,208.4 615.6,210.1 621.9,213.4 628.2,216.7 631.2,220.5 631.2,224.9L631.2,352.4C631.2,356.7 628.1,360.7 621.9,364.2 615.6,367.7 608.5,369.5 600.6,369.5 592.6,369.4 585.5,367.6 579.2,364.1z M349.1,389.1L350.5,252.4C350.5,243.2 350.3,235.8 349.9,230.1 349.3,224.4 349.4,220.9 350.5,219.4 355.7,208.7 363.1,204.8 372.5,207.5 382.4,210.3 388.2,214.6 390.2,220.4 392.6,221.8 393.7,225.2 393.2,230.6 392.6,235.8 392.5,243.5 392.5,253.3L392.5,389 461.4,389 461.4,172.2 404.5,173.3 405.9,200.2C402,195.1 395.5,190.2 386.9,185.6 378.1,181 368.8,177.6 358.4,174.9 348.2,172.3 337.7,171 326.9,171 316.3,171 306.9,172.9 299,176.5 290.3,180.5 285.6,186 284.7,192.7 283.7,199.5 282.8,205.7 281.8,211.6 280.6,215.3 280.6,220.7 281,227.8 281.5,235 281.8,243.8 281.8,254.4L280.2,389 349.1,389z M821.3,401.5C828.3,401.3 835.2,400.7 842.1,399.5 855.9,397.4 867.8,393.2 878,387.2 888.4,381.2 894.3,373.2 896.4,363.3 898.4,357.5 899.6,349.4 900,338.9 900.6,328.5 900.8,317.6 900.8,306.3L900.8,276 781.8,276 781.8,247.4 781.8,226 781.8,223.8C781.8,217.9 784.5,213.4 789.8,210.1 795.1,206.8 801.5,205.2 809.5,205.2L820,205.2C828,205.2 834.8,206.8 840.5,210.1 846.2,213.4 849.1,217.9 849.1,223.8L849.1,243 849.1,248.4 900.7,248.4C902.4,242.2 903.1,236.5 903.9,231.4 903.9,215.4 897.1,202.3 883.7,192.5 865.7,178.9 845.1,171.6 821.5,170.5L815.4,170.5C794.4,170.5 774.6,176.2 755.6,187.5 735.1,199.6 724.8,219.9 724.8,248.4L724.8,316C724.8,336.2 727.8,351.9 733.8,363.2 739.9,374.6 749.6,383.6 762.9,390.2 773.6,395.7 785.9,399.1 800.1,400.6 805.4,401.2 810.8,401.4 816,401.5 817.8,401.5 819.5,401.5 821.3,401.5z M571.5,464.9L571.5,380.3C593,391.6 611.8,397.3 628.3,397.3 637.2,397.3 645.4,395.8 652.3,392.9 673.3,383.8 683.6,368.4 683.6,346.8L683.6,234.3C683.6,220.8 680.7,208.8 675,198.3 669.3,187.8 661.4,180.3 651.1,175.8 640.8,171.2 628.5,170.2 613.6,172.7 599,175.3 582.3,182.2 563.9,193.6L559.4,175.5 502.5,174.4 502.5,464.9 571.5,464.9z M293.7,464.9L293.7,426.5 211.3,426.5 211.3,172.2 142.5,172.2 142.5,427.5 71.4,427.5 71.4,464.8 293.7,464.8z M103.2,537.1C83.4,531.4 66,523.9 51.1,514.6 36.2,505.3 24.2,494.1 15.5,481.1 6.7,468.1 2.5,454.5 2.5,440.2L2.5,199.2C2.5,184.2 6.7,170.4 15.5,157.8 24.2,145.1 36.3,134 51.1,124.5 66,114.9 83.4,107.5 103.2,102 122.9,96.6 144,93.7 166.4,93.7L838,93.7C860.8,93.7 882.2,96.5 901.9,102 921.7,107.5 938.9,114.9 953.9,124.5 968.9,134 980.8,145.1 989.4,157.8 998.2,170.4 1002.4,184.2 1002.4,199.2L1002.4,440.2C1002.4,454.5 998.1,468.1 989.4,481.1 980.8,494.1 968.8,505.3 953.9,514.6 938.9,523.9 921.5,531.4 901.6,537.1 881.5,542.7 860.4,545.6 838,545.6L166.4,545.6C144,545.6,122.9,542.7,103.2,537.1z M512,787.4C518.2,782.8,521.2,777.3,521.2,770.7L521.2,651.6C521.2,645.4 518.2,640 512,635.7 505.6,631.2 498.5,629.1 490.5,629.1 482.1,629.1 474.8,631.4 468.9,635.9 462.8,640.5 459.8,645.8 459.8,651.6L459.8,770.8C459.8,777.4 463,782.9 469.2,787.5 475.3,792.1 482.5,794.4 490.4,794.4 498.5,794.4 505.6,792 512,787.4z M625.3,671.3L625.3,647.2C625.3,640.9 625.8,636 626.7,632.3 627.9,629.4 628.5,626.3 629.1,623.2 629.6,620.1 630.9,617 632.7,614.1 637.6,607.5 643.4,602.6 649.9,599.4 657.4,595.8 667,593.9 678.4,593.9 688,593.9 696.7,595.7 704.7,599.4 711.2,603.4 717.9,609.1 724.9,616.4L723.5,598.3 799.6,598.3 799.6,822.3 740,822.3 740,647.7C740,643.3 737.3,639.5 732.3,636.1 727.3,632.8 721.5,631.2 714.4,631.2 706.9,631.2 701,632.9 696.4,636.1 691.9,639.4 689.7,643.2 689.7,647.7L689.7,822.3 625.3,822.3 625.3,671.3z M435.2,820.2C421.6,814.3 412,804.6 405.9,791 401.1,777.9 398.4,761.2 398.4,741.1L398.4,681.8C398.4,661.6 400,646.7 402.9,636.8 406.9,626.1 412,618 418,612 423.8,604.4 433.1,599.1 445.7,596.1 459,592.4 474.2,590.6 490.5,590.6 506.7,590.6 520.8,592.7 533.3,597.2 543.8,600.1 553.5,606.2 562.4,615.3 571.5,625.6 576.3,634.9 577.5,643.3 580.4,652.5 582,667.5 582,688.4L582,746C582,761.4 580.4,773.7 577.5,782.8 574.5,791.3 570,798.7 564,805.3 556,814.5 545.8,820.9 533.3,824.5 520.7,828.9 505.4,831.1 486.9,831.1 466,831.2 448.8,827.5 435.2,820.2z M244.9,763.7L244.9,591.7 318.2,591.7 318.2,763.7 404.5,911.4 324.5,911.4 278.9,801 233.1,911.4 152.9,911.4 244.9,763.7z" />

<glyph unicode="&#xe714;" glyph-name="google-talk" d="M379.2,512.3C379.2,488.5 394.8,477.8 413,477.8 439.3,477.8 456.2,494.2 461.9,511.1 463.1,515.3 463.6,519.4 463.6,522.6L463.6,557.3C461.1,557.4 458.6,557.4 456.1,557.4 418.7,557.1 379.2,548.6 379.2,512.3z M498.6,577.8L498.6,503.3C498.6,486.1,499.4,469.2,501.4,455.6L468.9,455.6 466.1,480.6 464.8,480.6C453.7,465 432.3,451.1 403.9,451.1 363.6,451.1 343,479.5 343,508.3 343,556.4 385.8,582.8 462.8,582.4L462.8,586.6C462.8,602.5 458.3,632.7 417.5,632.2 398.6,632.2 379.2,626.9 365.2,617.4L357.1,641.8C373.5,652.1 397.7,659 422.9,659 483.8,658.9 498.6,617.3 498.6,577.8z M266.1,654.8L318,654.8 318,627.3 266.1,627.3 266.1,519.8C266.1,495.1 273,481.1 293.1,481.1 303.1,481.1 308.9,481.9 314.2,483.6L315.8,455.9C308.9,453.6 297.7,451.1 283.8,451.1 266.9,451.1 253.3,456.9 244.7,466.3 234.7,477.4 230.6,495.2 230.6,518.6L230.6,627.3 199.7,627.3 199.7,654.8 230.6,654.8 230.6,691.8 266.1,702.6 266.1,654.8z M689.8,747.8L689.8,563.4 690.7,563.4C695.5,570.4,702.3,579,707.9,586.1L766.8,654.9 810.1,654.9 733.6,573 821.3,455.7 776.8,455.7 708.5,551.2 689.9,530.6 689.9,455.8 654.1,455.8 654.1,748 689.8,748z M593.3,747.8L593.3,455.6 557,455.6 557,747.8 593.3,747.8z M30.2,574.8C30.2,445.7,93.5,330.1,193.3,251.7L119.6,2.5 372,163.9C413.4,153.1 457.2,147.2 502.5,147.2 763.4,147.2 974.8,338.8 974.8,574.9 974.8,811.1 763.4,1002.6 502.5,1002.6 241.6,1002.5 30.2,811.1 30.2,574.8z" />

<glyph unicode="&#xe715;" glyph-name="google-plus" d="M256.9,320.8C240,314.7 191.3,296.7 191.3,243.2 191.3,189.8 244,151.3 325.6,151.3 399,151.3 437.9,186.1 437.9,232.7 437.9,271.1 412.7,291.4 354.8,332 348.7,332.7 344.8,332.7 337.1,332.7 330.2,332.8 289,331.4 256.9,320.8z M771.9,541L771.9,426 887.1,426 887.1,347.6 771.9,347.6 771.9,233.3 694.1,233.3 694.1,347.5 579.4,347.5 579.4,425.9 694.1,425.9 694.1,540.9 771.9,540.9z M246.2,643.7C233.3,628.1 229.3,607.7 229.3,588.2 229.3,537.7 259.3,454 324.9,454 344.1,454 364.6,463.2 377,475.2 394.4,492.6 396,516.6 396,530 396,584.4 363.2,668.7 299.8,668.7 279.8,668.7 258.5,659 246.2,643.7z M505.1,694.1L456.2,669.1 408.9,669.1C426.4,652.3 463.2,623.3 463.2,566.1 463.2,510.4 431.1,482.7 399,458 389.1,448.2 377.5,437.5 377.5,421 377.5,404.5 389.1,395.3 397.5,388.7L424.9,367.6C458.5,339.7 489,314 489,262.2 489,191.4 419.5,119.9 288.1,119.9 177.3,119.9 123.9,171.8 123.9,227.6 123.9,254.6 137.7,293.1 182.9,319.5 230.1,348.1 294.2,351.9 328.7,354.2 318,367.7 305.8,381.9 305.8,405.4 305.8,418 309.6,425.6 313.5,434.7 305,434 296.6,433.2 288.9,433.2 208,433.2 162,492.8 162,551.5 162,586.2 178.1,624.7 211.1,652.4 254.5,687.9 306.5,694.1 347.7,694.1L505.1,694.1z M2.5,198.4C2.5,90.7,90.7,2.5,198.5,2.5L806.5,2.5C914.3,2.5,1002.5,90.7,1002.5,198.4L1002.5,771.7 2.5,771.7 2.5,198.4z M3.4,815L1001.6,815C997.1,918.8,911.4,1002.5,806.5,1002.5L198.5,1002.5C93.6,1002.5,7.9,918.7,3.4,815z" />

<glyph unicode="&#xe716;" glyph-name="visual-studio" d="M230.1,360.5L111.3,499.7 222.8,633.4 326.8,521.5 482.7,712.5 381.3,835.3 220.3,835.3 2.5,584.3 2.5,412.4 215.3,166.9 386.1,166.9 777.2,636.2 893.6,502.5 779.7,366.1 680.7,480.7 519.8,287 616.3,166.9 784.6,166.9 1002.4,409.7 1002.4,584.3 784.6,838.1 618.8,838.1 230.1,360.5z" />

<glyph unicode="&#xe717;" glyph-name="new-microsoft" d="M437.2,61.6L1002.5,2.5 1002.5,496 437.2,496 437.2,61.6z M2.5,106.9L374.5,68.1 374.5,496 2.5,496 2.5,106.9z M2.5,898.1L2.5,558.7 374.5,558.7 374.5,937 2.5,898.1z M437.2,943.5L437.2,558.7 1002.5,558.7 1002.5,1002.5 437.2,943.5z" />

<glyph unicode="&#xe718;" glyph-name="hotmail" d="M392.4,522.5C392.4,522.5 275,485.3 338,318.2 338,318.2 458.3,151.1 575.9,168.1 575.9,168.1 617.1,183.7 612,268.4L606.4,273.4C495.5,373.1 454.9,463.2 440.5,523.4 433,524.7 425.3,525.4 417.3,525.3 409.4,525.2 401.1,524.4 392.4,522.5z M534.2,563.9C523.7,562.9 515.9,559.6 509.2,555.5 628.6,439.2 621.3,279 621.2,277.2L621.2,276.3C666,241.8 706.2,220.1 706.2,220.1 809.4,152.1 852.3,220.1 852.3,220.1 889.6,246.6 922.5,304.9 922.5,304.9 1022.8,437.6 883.8,525.4 883.8,525.4 831.1,571.3 757.6,584.4 691.5,584.6 606.7,584.9 534.2,563.9 534.2,563.9z M612.8,277.4C612.8,277.4 624.6,485.8 442.4,598.7 442.5,598.6 419,451.4 612.8,277.4z M18.2,711.8C16.6,711.4 8.8,708.5 4.7,698.7 -5.2,673.9 12.7,612.9 154.9,462.6 159.1,458.3 231.8,386.8 321.2,343.9 279.3,491.4 384.3,526.8 389.1,528.2 400.4,530.6 410.6,531.7 420.6,531.7 427,531.7 433.2,531.1 439.1,530.1 435.7,546.4 433.9,560.4 433.4,571.4 416.2,585.1 396.9,599.2 374.2,613.6 365.3,617.9 155.5,721.3 57.2,721.3 38.7,721.3 24.6,717.6 18.2,711.8z M873.8,838.1C848.1,837.6 817,830.4 779.4,813.3 779.4,813.3 710.6,788.8 626,715.1 560.1,657.6 504.2,601.5 482.5,578.9 489.9,573 496.9,566.9 503.5,560.7 511.7,565.6 521.5,569 533.1,570.1 534.1,570.5 605.3,590.9 690,590.9 776.1,590.9 843.5,570.3 890.2,529.5 890.5,529.3 937.2,498.9 957.6,447.5 960.8,455.2 963.5,463.5 965.5,472.6 965.5,472.6 1021.4,643.4 995.7,715.1 995.7,715.1 985.6,836.3 878.9,838.1 877.2,838.1 875.5,838.1 873.8,838.1z" />

<glyph unicode="&#xe719;" glyph-name="apple" d="M118,642.1C45.3,530.1 57.5,319.3 175.6,139.6 217.7,75.4 274.2,3.2 347.7,2.5 413.3,1.9 431.8,44.3 520.7,44.8 609.6,45.3 626.5,2 691.9,2.7 765.6,3.4 825.1,83.3 867.2,147.6 897.5,193.5 908.7,216.8 932.2,268.8 761.6,333.3 734.2,574.4 903,666.9 851.5,731.2 779.2,768.2 710.9,768.2 620.6,768.2 582.4,725.4 519.7,725.4 455.3,725.4 406.1,768.2 327.9,768.2 251.4,768.3 169.7,721.7 118,642.1z M538.2,920.2C505,879.8 477.6,820 488.1,762 546.7,760.1 607.3,795.2 642.4,840.2 675.3,882.3 700.1,941.8 691.1,1002.6 637.5,998.7 574.8,964.7 538.2,920.2z" />

<glyph unicode="&#xe71a;" glyph-name="mac-pc" d="M383.7,135.3L383.7,97.8 308.7,97.8C289.9,97.8,271.2,82.2,271.2,60.3L271.2,22.8 730.6,22.8 730.6,60.3C730.6,79,715,97.8,693.1,97.8L618.1,97.8 618.1,135.3C618.1,154.1,602.5,172.8,580.6,172.8L424.4,172.8C402.5,172.8,386.9,157.2,383.7,135.3z M558.8,307.2C558.8,276 533.8,250.9 502.5,250.9 471.2,250.9 446.2,275.9 446.2,307.2 446.2,338.5 471.2,363.5 502.5,363.5 533.8,363.5 558.8,338.4 558.8,307.2z M371.3,704.1C346.3,666.6 349.4,594.7 390,532.2 405.6,510.3 424.4,485.3 449.4,485.3 471.3,485.3 477.5,500.9 508.8,500.9 540.1,500.9 546.3,485.3 568.2,485.3 593.2,485.3 612,513.4 627.6,535.3 637,550.9 640.1,557.2 649.5,575.9 593.2,597.8 583.9,682.1 640.1,713.4 621.4,735.3 596.4,747.8 574.5,747.8 543.2,747.8 530.7,732.2 508.9,732.2 487.1,732.2 471.4,747.8 443.3,747.8 418.1,747.8 390,732.2 371.3,704.1z M515,797.8C505.6,785.3 496.3,763.4 499.4,744.7 521.3,744.7 540,757.2 552.5,772.8 561.9,788.4 571.3,807.2 568.1,829.1 549.4,825.9 527.5,813.4 515,797.8z M886.9,904.1C905.6,904.1,924.4,888.5,924.4,866.6L924.4,444.7C924.4,426,908.8,407.2,886.9,407.2L118.1,407.2C99.3,407.2,80.6,422.8,80.6,444.7L80.6,866.6C80.6,888.5,96.2,904.1,118.1,904.1L886.9,904.1z M2.5,904.1L2.5,288.4C2.5,244.7,36.9,210.3,80.6,210.3L924.4,210.3C968.1,210.3,1002.5,244.7,1002.5,288.4L1002.5,904C1002.5,947.7,968.1,982.1,927.5,982.1L80.6,982.1C36.9,982.2,2.5,947.8,2.5,904.1z" />

<glyph unicode="&#xe71b;" glyph-name="i-phone" d="M554.1,99.4C554.1,71.3 532.2,49.4 504.1,49.4 476,49.4 454.1,71.3 454.1,99.4 454.1,127.5 476,149.4 504.1,149.4 529.1,149.4 550.9,124.4 554.1,99.4z M354.1,602.5C326,561.9 332.2,480.6 376,415 391.6,393.1 413.5,365 441.6,365 466.6,365 472.9,380.6 507.2,380.6 538.5,380.6 544.7,365 569.7,365 597.8,365 619.7,393.1 635.3,418.1 647.8,433.7 650.9,443.1 660.3,461.8 597.8,483.7 588.4,574.3 650.9,608.7 632.2,633.7 604,646.2 579,646.2 547.7,646.2 532.1,630.6 504,633.7 479,633.7 460.2,649.3 432.1,649.3 404.1,649.4 372.8,633.7 354.1,602.5z M516.6,705.6C504.1,690 494.7,668.1 497.9,646.2 519.8,643.1 541.6,658.7 554.1,674.3 566.6,689.9 576,711.8 572.8,733.7 554.1,730.6 529.1,718.1 516.6,705.6z M735.3,886.9C744.7,886.9,754.1,877.5,754.1,868.1L754.1,215C754.1,205.6,744.7,196.2,735.3,196.2L272.8,196.2C263.4,196.2,254.1,205.6,254.1,215L254.1,868.1C254.1,877.5,260.3,886.9,272.8,886.9L735.3,886.9z M541.6,965C551,965 560.4,955.6 560.4,946.2 560.4,936.8 551,927.5 541.6,927.5L463.5,927.5C454.1,927.5 444.8,936.9 444.8,946.2 444.8,955.6 454.2,965 463.5,965L541.6,965z M175.9,886.9L175.9,118.1C175.9,55.6,229,2.5,291.5,2.5L713.4,2.5C775.9,2.5,829,55.6,829,118.1L829,886.9C829,949.4,775.9,1002.5,713.4,1002.5L291.6,1002.5C229.1,1002.5,175.9,949.4,175.9,886.9z" />

<glyph unicode="&#xe71c;" glyph-name="device-tablet" d="M612.5,145.2C616.2,128.9 606.1,112.6 589.7,108.8 573.4,105.1 557.1,115.2 553.3,131.6 549.6,147.9 559.8,164.2 576.1,168 578.1,168.5 580.2,168.8 582.2,168.8 596.3,169.2 609.2,159.6 612.5,145.2z M356.8,530.8C342.3,521.9 344.9,501.7 346.5,484.8 356.2,382.3 435.2,297.6 536.8,281 553.3,278.3 572.9,274.5 582.6,288 588.3,296 588.5,306.8 583.2,315.1 582.4,316.5 581.4,317.7 580.4,318.9 571.3,328.7 555.8,326.9 542.7,329.1 462.7,342.7 400.9,410.1 394.5,491.2 393.5,503.4 395.7,517.4 387.3,526.4 385.7,528.2 383.8,529.7 381.8,530.9 377.9,533.2 373.6,534.4 369.2,534.4 364.9,534.4 360.5,533.3 356.8,530.8z M451.8,535.4C437.9,526.9 439.7,507.8 442.2,491.7 450.8,436.7 492.8,391.7 547.1,379.3 562.7,375.7 581.5,372.7 590.9,385.7 596.6,393.8 596.8,404.6 591.5,412.9 590.7,414.2 589.7,415.4 588.7,416.6 580.2,425.7 565.6,424.1 553.5,427.4 521.9,436 497.4,462.1 490.8,494.2 488.3,506.7 491.1,521.6 482.4,530.9 480.7,532.6 478.9,534.2 476.9,535.4 473,537.7 468.6,538.9 464.3,538.9 459.9,539 455.6,537.8 451.8,535.4z M824.1,896.3L541.8,537.4C529,520.9 532.1,497.3 548.6,484.6 565.1,471.9 588.7,475 601.4,491.5L883.7,850.3C896.4,866.8 893.3,890.4 876.9,903.1 869.7,908.7 861.1,911.2 852.7,910.9 841.8,910.6 831.2,905.5 824.1,896.3z M655.1,1001.5L143.2,883.4C122.7,878.7,109.8,858,114.5,837.4L300.5,32.3C305.3,11.7,326,-1.20000000000005,346.5,3.49999999999995L858,123.1C878.6,127.8,891.6,148.5,886.8,169.1L774.9,653.8 716.4,572.8 785.9,271.9C787.4,265.3,783.3,258.8,776.8,257.3L360.5,161.1C354,159.6,347.4,163.7,345.9,170.2L213.1,744.9C211.6,751.5,215.7,758,222.2,759.5L638.5,855.7C645,857.2,651.6,853.1,653.1,846.6L672.4,762.8 732.5,836.7 701.1,972.8C697,990.8 680.6,1002.9 662.8,1002.5 660.3,1002.4 657.7,1002.1 655.1,1001.5z" />

<glyph unicode="&#xe71d;" glyph-name="e-book" d="M870.1,555.6L882.6,546.2 888.9,540C913.9,515 929.5,480.6 929.5,446.3 929.5,412 917,377.5 892,352.5L879.5,340 804.5,261.9 685.8,136.9C660.8,108.8 623.3,93.1 585.8,93.1 551.4,93.1 520.2,105.6 495.2,127.5L429.5,190C376.4,240,376.4,324.4,429.5,380.6L548.2,505.6 560.7,521.2 820.1,280.6 842,302.5 729.5,408.8 870.1,561.9 870.1,555.6z M826.3,605.6L845,586.8 848.1,583.7 707.6,430.6 585.7,543.1 638.8,596.2C663.8,621.2 698.2,636.8 735.7,636.8 770.1,636.9 801.3,624.4 826.3,605.6z M607.6,608.7L601.3,602.5 548.2,549.4 404.5,399.4C338.9,333.8,338.9,227.5,404.5,165L432.6,140 342,52.5C320.1,33.8 298.2,27.5 276.4,30.6 238.9,36.8 210.8,77.5 210.8,77.5L185.8,61.9C188.9,61.9,220.2,11.9,273.3,2.5L288.9,2.5C313.9,2.5,338.9,11.9,363.9,33.8L457.7,124.4 473.3,108.8C538.9,46.3,642,49.4,707.7,118.2L851.4,268.2 901.4,318.2 910.8,327.6C976.4,393.2,976.4,499.5,910.8,562L904.5,568.2 851.4,618.2 845.1,624.4C813.8,652.5 776.3,668.2 735.7,668.2 692,668.1 645.1,652.5 607.6,608.7z M45.1,871.3L45.1,252.5C45.1,180.6,104.5,121.3,176.4,121.3L376.4,121.3 363.9,133.8C276.4,215.1,279.5,352.6,360.8,440.1L573.3,665.1C620.2,715.1,685.8,740.1,748.3,733.8L748.3,799.4C748.3,821.3,732.7,840,710.8,843.1L176.3,843.1C145,843.1,120,861.9,120,886.9L120,890C120,915,145,933.8,176.3,933.8L657.5,933.8 663.8,933.8 713.8,933.8C732.6,933.8 748.2,949.4 748.2,968.2 748.2,987 732.6,1002.6 713.8,1002.6L454.5,1002.6 445.1,1002.6 176.3,1002.6C104.5,1002.5,45.1,943.1,45.1,871.3z" />

<glyph unicode="&#xe71e;" glyph-name="security-group-mem-wf" d="M883.8,564L656.3,337.3 550,442.7 589.3,482C589.3,482 652.2,415.2 656.3,415.2 660.5,415.2 844.5,603.3 844.5,603.3L883.8,564z M433.9,685.4C433.9,685.4 416,464.3 474.7,337.2 515.6,248.6 598.4,173.4 716.9,130.7 835.4,173.6 918.1,245.2 959.1,333.8 1017.8,460.8 999.9,685.5 999.9,685.5 823.9,685.5 724.1,797.8 724.1,797.8 724.1,797.8 609.8,685.4 433.9,685.4z M2.5,299.1L304.5,299.1 304.5,241.5 232.6,241.5 232.6,184 556.5,184C508.2,223.3 470.1,270.5 445.5,323.8 440.7,334.2 436.5,345.3 432.6,356.6L60,356.6 60,816.9 697.3,816.9C700,819.2,701.6,820.8,701.7,820.9L725.8,844.3 748.2,819.2 750.5,816.8 808,816.8 808,772.4C824.1,762.5,843.3,752.3,865.5,743.5L865.5,874.3 2.5,874.3 2.5,299.1z" />

<glyph unicode="&#xe71f;" glyph-name="server-01" d="M777.5,224.4L777.5,121.3 758.8,121.3 758.8,224.4 777.5,224.4z M743.1,224.4L743.1,121.3 724.4,121.3 724.4,224.4 743.1,224.4z M705.6,224.4L705.6,121.3 686.9,121.3 686.9,224.4 705.6,224.4z M668.1,224.4L668.1,121.3 649.4,121.3 649.4,224.4 668.1,224.4z M633.8,224.4L633.8,121.3 615,121.3 615,224.4 633.8,224.4z M596.3,224.4L596.3,121.3 577.6,121.3 577.6,224.4 596.3,224.4z M561.9,224.4L561.9,121.3 543.1,121.3 543.1,224.4 561.9,224.4z M524.4,224.4L524.4,121.3 505.7,121.3 505.7,224.4 524.4,224.4z M486.9,224.4L486.9,121.3 468.2,121.3 468.2,224.4 486.9,224.4z M452.5,224.4L452.5,121.3 433.7,121.3 433.7,224.4 452.5,224.4z M415,224.4L415,121.3 396.3,121.3 396.3,224.4 415,224.4z M380.6,224.4L380.6,121.3 361.8,121.3 361.8,224.4 380.6,224.4z M343.1,224.4L343.1,121.3 324.3,121.3 324.3,224.4 343.1,224.4z M305.6,224.4L305.6,121.3 290,121.3 290,224.4 305.6,224.4z M271.3,224.4L271.3,121.3 252.5,121.3 252.5,224.4 271.3,224.4z M233.8,224.4L233.8,121.3 215,121.3 215,224.4 233.8,224.4z M780.6,377.5L780.6,274.4 215,274.4 215,377.5 780.6,377.5z M780.6,565L780.6,461.9 215,461.9 215,565 780.6,565z M780.6,752.5L780.6,649.4 215,649.4 215,752.5 780.6,752.5z M780.6,936.9L780.6,833.8 215,833.8 215,936.9 780.6,936.9z M149.4,55.6L177.5,55.6 177.5,2.5 246.2,2.5 246.2,55.6 755.6,55.6 755.6,2.5 824.3,2.5 824.3,55.6 855.6,55.6 855.6,1002.5 149.4,1002.5 149.4,55.6z" />

<glyph unicode="&#xe720;" glyph-name="network-sharing" d="M668.6,30.7L944.5,30.7C957,30.7 969.6,40.1 969.6,55.8 969.6,68.4 960.2,80.9 944.5,80.9L668.6,80.9 668.6,30.7z M35.4,55.8C35.4,43.3,47.9,30.7,60.5,30.7L336.4,30.7 336.4,80.9 60.5,80.9C48,80.9,35.4,71.5,35.4,55.8z M477.4,115.3L395.9,115.3C383.3,115.3,373.9,105.9,373.9,93.4L373.9,24.4C373.9,11.9,383.3,2.50000000000001,395.9,2.50000000000001L609.1,2.50000000000001C621.6,2.50000000000001,631,11.9,631,24.4L631,93.4C631,105.9,621.6,115.3,609.1,115.3L527.6,115.3 527.6,209.4 477.4,209.4 477.4,115.3z M267.4,344.2C267.4,322.3 248.6,306.6 229.8,306.6 207.9,306.6 192.2,325.4 192.2,344.2 192.2,366.1 211,381.8 229.8,381.8 248.6,381.8 267.4,366.1 267.4,344.2z M123.2,416.3L123.2,272.1C123.2,259.6,132.6,250.2,145.2,250.2L847.4,250.2C859.9,250.2,869.3,259.6,869.3,272.1L869.3,416.3C869.3,428.9,859.9,438.3,847.4,438.3L145.1,438.3C132.6,438.3,123.2,428.8,123.2,416.3z M214.1,902.2L214.1,582.4C214.1,573,220.4,566.7,226.7,566.7L769,566.7C775.3,566.7,781.5,573,781.5,582.4L781.5,902.1C781.5,911.5,775.2,917.8,769,917.8L226.6,917.8C217.2,917.9,211,911.6,214.1,902.2z M797.2,955.5C809.7,955.5,822.3,946.1,822.3,930.4L822.3,560.5C822.3,548,809.8,535.4,797.2,535.4L198.4,535.4C185.9,535.4,173.3,544.8,173.3,560.5L173.3,930.4C173.3,942.9,185.9,955.5,198.4,955.5L797.2,955.5z M123.2,946.1L123.2,535.4C123.2,504.1,148.3,479,179.6,479L812.8,479C844.1,479,869.2,504.1,869.2,535.4L869.2,946.1C869.2,977.4,844.1,1002.5,812.8,1002.5L179.6,1002.5C148.3,1002.5,123.2,977.4,123.2,946.1z" />

<glyph unicode="&#xe721;" glyph-name="database-connection" d="M619.1,260.6L619.1,183.8C619.1,141.5 705,107.2 810.9,107.2 916.6,107.2 1002.5,141.5 1002.5,183.8L1002.5,260.6C1002.5,218.2 916.7,183.8 810.9,183.8 705,183.8 619.1,218.2 619.1,260.6L619.1,260.6z M2.6,184C2.6,141.5 88.5,107.2 194.4,107.2 300.3,107.2 386.2,141.6 386.2,184L386.2,260.6C386.2,218.2 300.3,184 194.4,184 88.4,184 2.60000000000002,218.2 2.60000000000002,260.6L2.60000000000002,184z M619.1,375.6L619.1,299C619.1,256.6 705,222.2 810.9,222.2 916.6,222.2 1002.5,256.6 1002.5,299L1002.5,375.6C1002.5,333.2 916.7,299 810.9,299 705,299 619.1,333.2 619.1,375.6L619.1,375.6z M2.6,299C2.6,256.6 88.5,222.2 194.4,222.2 300.3,222.2 386.2,256.6 386.2,299L386.2,375.6C386.2,333.2 300.3,299 194.4,299 88.4,299 2.60000000000002,333.2 2.60000000000002,375.6L2.60000000000002,299z M791.5,491C791.5,480.4 800.3,471.7 811,471.7 821.6,471.7 830.3,480.4 830.3,491L830.3,547.3C924.1,543.5 983.5,512.4 983.5,490.7 983.5,467.1 916.4,433 811,433 705.6,433 638.3,467.1 638.3,490.7 638.3,512.5 697.7,543.3 791.5,547.3L791.5,491z M174.9,547.5L174.9,491.2C174.9,480.4 183.6,471.7 194.4,471.7 205,471.7 213.7,480.4 213.7,491.2L213.7,547.5C307.6,543.6 366.9,512.7 366.9,490.8 366.9,467.4 299.8,433.3 194.4,433.3 89,433.3 21.7,467.3 21.7,490.8 21.7,512.5 81.1,543.5 174.9,547.5L174.9,547.5z M873.1,658.7L853.9,658.7 889.6,600.6 925.4,658.7 905.9,658.7 905.9,730.2 873.1,730.2 873.1,658.7z M79.2,671.9L98.5,671.9 98.5,600.6 131.2,600.6 131.2,671.9 150.7,671.9 114.9,730.2 79.2,671.9z M180.4,776C176.8,772.4,174.7,767.5,174.7,762.2L174.7,566.6C78.1,562.7,2.4,530.3,2.4,490.8L2.4,414C2.4,371.6 88.3,337.4 194.2,337.4 300.1,337.4 386,371.6 386,414L386,490.8C386,530.3,310.1,562.6,213.5,566.6L213.5,742.9 791.3,742.9 791.3,566.6C694.7,562.7,619,530.3,619,490.8L619,414C619,371.6 704.9,337.4 810.8,337.4 916.5,337.4 1002.4,371.6 1002.4,414L1002.4,490.8C1002.4,530.3,926.8,562.6,830.1,566.6L830.1,762.2C830.1,772.8,821.4,781.5,810.8,781.5L194.2,781.7C189.2,781.7,184.3,779.6,180.4,776z M557.5,878.5L389.3,878.5 389.3,845.8 557.6,845.8 557.6,826.3 615.8,862.1 557.5,897.8 557.5,878.5z" />

<glyph unicode="&#xe722;" glyph-name="data-information" d="M39,230.1L39,60.6C39,28.6,64.8,2.6,96.9,2.6L908.1,2.6C940,2.6,966,28.6,966,60.6L966,230.1C966,262,940,288,908.1,288L96.9,288C64.8,288,39,262.1,39,230.1z M39,590.6L39,421.1C39,389.1,64.9,363.1,96.9,363.1L908.1,363.1C940,363.1,966,389.1,966,421.1L966,590.6C966,622.6,940,648.5,908.1,648.5L96.9,648.5C64.9,648.5,39,622.6,39,590.6z M275.4,860C275.4,823.7 245.9,794.2 209.6,794.2 173.4,794.2 143.9,823.7 143.9,860 143.9,896.3 173.4,925.8 209.6,925.8 245.8,925.8 275.3,896.3 275.4,860z M39,944.6L39,775.1C39,743.2,64.8,717.2,96.9,717.2L908.1,717.2C940,717.2,966,743.2,966,775.1L966,944.6C966,976.7,940,1002.6,908.1,1002.6L96.9,1002.6C64.9,1002.6,39,976.7,39,944.6z" />

<glyph unicode="&#xe723;" glyph-name="database-wf" d="M877.5,206.6C877.5,139.6 723.5,64.9 502.5,64.9 281.5,64.9 127.5,139.6 127.5,206.6L127.5,295.6 132,292.2C208.1,235.7 342.8,199.7 502.5,199.7 662.2,199.7 796.9,235.8 873,292.3L877.5,295.7 877.5,206.6z M132,489.4C208.1,432.9 342.7,396.9 502.5,396.9 662.3,396.9 796.9,432.9 873,489.4L877.5,492.8 877.5,403.8C877.5,336.8 723.5,262.1 502.5,262.1 281.5,262.1 127.5,336.8 127.5,403.8L127.5,492.8 132,489.4z M132,686.6C208.1,630.1 342.7,594.1 502.5,594.1 662.3,594.1 796.9,630.1 873,686.6L877.5,690 877.5,601.1C877.5,534.1 723.5,459.4 502.5,459.4 281.5,459.4 127.5,534.1 127.5,601.1L127.5,690 132,686.6z M877.5,798.3C877.5,731.3 723.5,656.6 502.5,656.6 281.5,656.6 127.5,731.3 127.5,798.3 127.5,865.3 281.5,940 502.5,940 723.5,940 877.5,865.3 877.5,798.3z M65.6,809L65.3,805.7 65,805.7 65,798.2 65,601 65,403.9 65,206.6 65,202.6 65.1,202.6 65.1,201.2C70.9,87.4 257,2.6 502.5,2.6 748,2.6 934.1,87.7 939.9,201.4L939.9,203.3 940,203.3 940,206.8 940,404 940,601.2 940,791.8 939.8,791.8 939.9,792.9C940,794.7 940,796.5 940,798.3 940,914.7 751.9,1002.5 502.5,1002.5 260.9,1002.5 76.8,920 65.6,809z" />

<glyph unicode="&#xe724;" glyph-name="user-unlocked-02-wf" d="M752.5,221.3L752.5,127.5C752.5,110.2 766.5,96.2 783.8,96.2 801.1,96.2 815.1,110.2 815.1,127.5L815.1,221.3C815.1,238.6 801.1,252.6 783.8,252.6 766.5,252.6 752.5,238.5 752.5,221.3z M940,283.8L940,65 627.5,65 627.5,283.8 940,283.8z M333.8,533.8L408.6,533.8 483.5,533.8C547.9,533.8,609.3,511.3,657.9,470.1L658,470 654.5,465C645,451 637.6,435.2 633,418.2 629.6,405.4 627.7,392.3 627.5,379.9L627.4,377.5 689.9,378.1C690,386.1 691.1,394 693.2,401.7 704.4,442.7 741.6,471.3 783.6,471.3 835.3,471.3 877.4,428.7 877.4,376.4 877.4,367 876,357.8 873.4,348.9L872.6,346.3 565,346.3 565,190 142.9,190C100,190 65.1,224.5 65.1,267 65.1,414.2 185.7,533.8 333.8,533.8L333.8,533.8z M582,768.1C582,691.7 530.3,623.7 456.3,602.8 425.5,594.1 391.9,594.1 361.2,602.8 287.1,623.6 235.4,691.6 235.4,768.1 235.4,862.9 313.1,940 408.7,940 504.3,940 582,863 582,768.1z M173,768C173,699.6,203.3,636.1,252.7,592.5L258.5,587.6 251.1,585.8C108.3,549.3 2.4,420.2 2.4,267 2.4,190.1 65.4,127.5 142.7,127.5L565,127.5 565,2.5 1002.5,2.5 1002.5,346.3 937.1,346.3 938.3,353.4C939.4,361 939.9,368.7 939.9,376.4 939.9,463.2 869.8,533.8 783.6,533.8 757.3,533.8 732.1,527.1 710,515.2L704.7,512.2 702,514.6C661.3,550.1,613,574.8,561.1,587.2L558.9,587.7 564.8,592.7C614.2,636.3 644.5,699.8 644.5,768.2 644.5,897.5 538.7,1002.6 408.7,1002.6 278.7,1002.6 172.9,897.5 173,768z" />

<glyph unicode="&#xe725;" glyph-name="user-globe-wf" d="M639.8,128.8C649,96.7,661.9,69.2,677.3,48.2L678.2,47 677.5,47.2C640.7,60.7,608.5,83.8,584,113.5L580.9,117.4 580.9,117.4C593.9,120.5,614.1,125,639.7,128.9L639.8,128.8z M870,129.1C887.5,126.2,905.2,122.5,923,117.9L924.6,117.5 921.3,113.4C896.8,83.7,864.6,60.6,827.8,47.1L827.2,46.9 828.1,48.1C843.5,69.2,856.3,96.7,865.6,128.7L865.9,129.8 870,129.1z M737,137.7L737,37 735,37.8C710.6,48.5,687.2,81.1,671.9,129.2L670.7,133 675.4,133.5C692.5,135.4,711.1,136.8,730.9,137.5L737,137.7 737,137.7z M769.5,137.9C788,137.6,807.2,136.6,827,134.7L834.8,133.9 833.4,129.2C818.1,81.1,794.7,48.6,770.3,37.8L768.3,37 768.3,138 769.5,137.9z M881.9,238.1L971,238 970.8,235C968.3,202.6,958.6,172.1,943.3,145.1L943.1,144.8 940.4,145.6C918.6,151.6,897,156.3,875.8,159.9L873.4,160.3 874.6,166.6C878.6,188.6,881.1,212.1,881.9,236.7L881.9,238.1 881.9,238.1z M850.5,238.1L850.3,231.5C849.4,208.8,846.8,187.7,843.1,168.2L842.4,164.7 839.8,165C816.1,167.7,793.2,169.1,771.3,169.5L768.3,169.5 768.3,238.1 850.5,238.1z M654.8,238.1L737.1,238.1 737.1,169.4 731.6,169.2C708.5,168.5,686.9,166.7,667.4,164.5L663.1,164 662.2,168.2C658.5,187.7,656,208.8,655,231.5L654.8,238.1 654.8,238.1z M623.6,238.1L623.6,236.7C624.4,209.6,627.4,183.9,632.2,160L632.3,159.7 631.1,159.5C599.6,154.4,576.3,148.6,564.4,145.4L562.4,144.9 562.2,145.2C547,172.1,537.3,202.6,534.7,235.1L534.5,238.1 623.6,238.1z M843.2,336.8C846.9,317.4,849.4,296.2,850.4,273.6L850.5,269.3 768.3,269.3 768.3,336.9 777.5,337.1C796.3,337.7,815.9,339,835.9,341.2L842.1,341.9 843.2,336.8z M667.9,341.7C688.2,339.4,710.5,337.7,734.4,337.1L737.1,337 737.1,269.3 654.9,269.3 655,273.6C656,296.2,658.5,317.4,662.2,336.8L663.3,342.2 667.9,341.7z M563.3,360.8C575.2,357.6,597.8,352,628.1,347.1L632.5,346.4 631.9,343.4C627.7,322.4,625,299.8,623.9,276.3L623.6,269.3 534.6,269.3 534.7,270.1C537.2,302.5,546.9,333,562.2,360L562.7,360.9 563.3,360.8z M943.2,360C958.4,333.1,968.1,302.6,970.7,270.1L970.8,269.3 881.9,269.3 881.6,276.3C880.5,299.8,877.7,322.3,873.6,343.4L873,346.3 884.9,348.4C903.5,351.9,922.4,356.2,941.5,361.6L942.1,361.8 943.2,360z M675.3,454.3L671.8,449.2C659.3,430.1,648.7,406.5,640.7,379.7L640,377.2 638.1,377.5C614.3,381.1,595.2,385.2,582.2,388.3L581.5,388.5 584.1,391.8C607,419.6,636.8,441.6,670.7,455.4L673.2,456.4 675.3,454.3z M827.7,458.2C864.5,444.7,896.7,421.6,921.2,391.9L923.4,389.2 921.2,388.6C903.4,384,885.7,380.3,868.3,377.4L865.4,376.9 864.6,379.7C855.4,410.4,842.9,436.8,828,457.1L827.1,458.3 827.7,458.2z M770.4,467.2C794.7,456.3,818.1,423.8,833.3,375.7L834.3,372.6 833.8,372.5C813.9,370.3,794.5,369.1,775.8,368.6L768.2,368.4 768.2,468.2 770.4,467.2z M737,468.2L737,368.7 736.9,368.7C714.2,369.3,693.1,370.8,673.8,372.9L671.1,373.2 671.9,375.8C687.1,423.9,710.5,456.4,734.8,467.3L737,468.2 737,468.2z M334,533.8L409.1,533.8 484,533.8C539.7,533.8,593.3,516.9,638.2,485.6L647.1,479.1 644.5,477.9C560.7,437.5 502.8,351.7 502.8,252.6 502.8,231.4 505.4,210.8 510.4,191.1L510.7,190.1 143,190.1C100.1,190.1 65.2,224.6 65.2,267.1 65.2,414.2 185.8,533.8 334,533.8L334,533.8z M582.2,768.2C582.2,691.8 530.5,623.8 456.5,602.9 425.7,594.2 392.1,594.2 361.4,602.9 287.3,623.7 235.6,691.7 235.6,768.2 235.6,863 313.3,940.1 408.9,940.1 504.5,940.1 582.2,863 582.2,768.2z M173.1,767.9C173.1,699.5,203.4,636,252.8,592.4L258.6,587.5 251.2,585.7C108.4,549.1 2.6,420 2.6,266.8 2.6,189.9 65.6,127.3 142.9,127.3L536.3,127.3 537.9,124.6C580.5,53.2,657.7,4.7,746.2,2.5L752.5,2.4 752.6,2.4 752.7,2.4 759,2.5C893.9,5.9 1002.5,116.7 1002.5,252.4 1002.5,390.3 890.4,502.4 752.6,502.4 741.8,502.4 731.2,501.7 720.8,500.4L717.7,500 710.2,507.3C667.9,546.8,616.6,574,561.3,587.2L559.1,587.7 565,592.7C614.4,636.3 644.7,699.8 644.7,768.2 644.7,897.5 538.9,1002.6 408.9,1002.6 278.9,1002.6 173.1,897.5 173.1,767.9z" />

<glyph unicode="&#xe726;" glyph-name="earth-wf" d="M327.1,693.1C327.1,702.6 331.4,706.1 345.8,707.8 347.1,694.6 343.3,691.7 327.1,693.1z M920.1,687.4C915.4,686.9,912,686.6,908,686.1L908,707.3C908.7,707.5 909.5,707.6 910.2,707.8 913.3,701.4 916.4,695 920.1,687.4z M372.1,703C358,700 351.4,704.6 355.7,716.5 361.1,711.9 373.5,717.1 372.1,703z M349.3,725.5C350.3,715.3,347.6,712.8,335.3,712.4L335.3,725.5 349.3,725.5z M324.2,724.6C318.2,716.2 312.3,708 306.8,700.3 296.8,701.1 297.4,707.4 299.9,712.8 303.2,719.8 307.6,725.9 315.3,726.3 317.8,726.4 320.8,725.9 324.2,724.6z M464.4,729.7C458.8,727.2 453.6,723.9 447.9,720.6 449.4,713.5 454.3,710.7 460.6,715.4 465.3,718.9 468.9,723.7 474.8,729.9 472.4,729.9 470.4,730.1 468.7,730.2 467,730.3 465.5,730.3 464.4,729.7z M329,744.8C335.1,743.5 338.6,738.4 336.3,729.5 324.2,730.2 312.6,730.8 300.4,731.4 303.2,740.1 311.8,745.4 321.9,745.5 324.1,745.6 326.5,745.3 329,744.8z M280.9,759.4C278.7,763.8 276.4,768.3 273,775.1 281.1,776.5 288,777.7 295.8,779 295.3,767.4 293.5,759.7 280.9,759.4z M688.2,759.8C699.4,756.4 705.5,764.6 712.4,769.8 715.3,771.9 715.8,777.2 717.3,781.1 713.4,782.6 709.3,785.6 705.5,785.3 694.2,784.3 686.5,772.6 688.2,759.8z M712.4,796.8C709.8,787.3 719.2,786.6 723.7,782.2 726.5,779.5 728.8,776.1 732.8,771.2 717,770.8 718.6,761.9 718.5,752.8 732.7,754.6 748.2,748.6 757.3,765.4 739.2,772.9 734.8,789.2 731.2,806.3 722.8,805.1 714.8,805.7 712.4,796.8z M854.8,792.3C857.8,788.6 850.9,776.8 845.3,776.5 837.2,776.1 829.1,776.3 821,776.7 819.2,776.8 816,779 816.1,779.9 816.3,781.9 818.2,783.7 819.5,785.6 819.7,785.8 820.1,785.9 820.4,786 832.1,789.3 837.2,796.8 834.8,809 834.6,809.9 835,810.9 835.1,811.9 835.2,812.1 835.6,812.2 836.7,813 842.8,806.2 849.1,799.5 854.8,792.3z M256.6,818.8C248.9,817.6 240.8,815.1 233.3,819.2 233.3,820.3 233.2,821.4 233.2,822.6 241.1,824.5 249,826.3 259,828.7 258,823.9 257.7,818.9 256.6,818.8z M232.2,840.1C231.9,842.6 231.6,845.3 231.2,848.8 240.2,850.6 248.7,852.3 258.3,854.1 258.3,837.9 252.9,838.5 232.2,840.1z M805,843.3C799.8,839.4 795.1,835.6 790.1,832.3 784.2,828.5 777.3,825.9 772.2,821.3 765.6,815.3 768.9,809.1 776.9,805 782.1,802.2 785.1,795.3 789.8,789.4 794.3,791 800.2,793.1 806.8,795.4 807.9,788.1 808.8,781.8 809.8,774.8 799.9,774.8 790.7,774.7 781.5,774.9 774.1,775 769.2,771.6 765.9,765.3 760,754 751.5,746.7 737.7,746.9 735.2,746.9 731.6,743 730.5,740.1 728.8,736.1 728.9,731.3 728.2,726.4 731.4,725.2 734.3,724.1 737.8,722.8 736.7,718.7 735.8,715 735,712.2 722.2,712.2 710.1,712.5 698,712.1 687.3,711.8 686.2,703.6 685.8,695.6 685.6,691.5 686.7,687.2 687.5,683.1 689.4,671.9 694.1,667.7 705.4,667.2 710.3,667 715.2,667.2 720.1,667.2 730,667.3 738.3,667.6 742.7,680.1 746.1,689.7 755.1,697.4 761.8,705.8 762.8,707.1 765.4,708.7 766.5,708.3 778.1,703.6 785.3,710.8 792.5,718.6 799.6,700.1 819.3,697.4 830.8,684.7 828.4,674.6 819.1,681.8 813.8,678.4 815.9,670.4 822.1,668.6 828.8,669.8 834.8,670.8 840.8,673 839.3,681.8 838.8,684.7 840.9,688.1 842.1,692.6 832.9,703 810.6,702.9 811.7,725.3 821,726.3 829.8,727 838.2,718.4 846.4,710 854.5,703.6 854.9,689.7 855.1,682.7 864.5,676 870.3,668.4 877.6,679.4 872.3,696.5 890.5,699.3 891,695 891.5,690.6 892,686.2 893.3,674.6 902.6,665.6 914.1,666.9 925.4,668.1 931.4,664.8 933.6,653.2 935,645.4 938.6,638 942.1,627.8 923.7,630.4 906,621.7 891.6,636.1 881.3,646.4 869.5,644.7 856.9,641.8 856.6,637.5 856.3,633.3 856,628.2 837.3,633.8 819.1,639.3 799.9,645L799.9,670.2C783.3,669 767.8,668 752.3,666.7 749.8,666.5 747,665.7 745,664.2 734.5,656.3 722.3,656.5 710.4,658 697.1,659.7 688.6,650.8 679.1,644.7 676.5,643 677,635 677.5,630 678.3,621.9 675.6,616.8 668.7,612.4 658,605.6 648.4,597.1 637.6,590.5 628.2,584.7 624.8,578.3 631.8,567.6 633.8,567.3 636.9,566.8 643.2,565.7 639.3,559.5 636.2,554.5 633.1,549.6 632.9,549.4 632.4,549.3 632.3,549.1 629.6,545.6 631.2,510 634.4,506.4 646.6,492.4 658.2,477.9 671.5,464.9 675.4,461.1 683.8,460.5 690.1,460.6 701.5,460.8 712.9,462.4 724.3,463.8 727,464.1 730.1,464.9 732.2,466.4 744.7,475.6 754.4,475.2 766.4,465.1 768.7,463.2 772,462.3 775.1,461.6 778.9,460.8 782.800000000001,460.6 786.700000000001,460.1 790.200000000001,459.7 793.700000000001,459.3 798.1,458.8 797.1,447.8 795.800000000001,437.5 795.4,427.2 795.2,423 796,418.1 798,414.4 805.8,399.8 814,385.3 822.5,371.1 825.700000000001,365.8 826.4,361.4 822.9,356 819.1,350 816.1,343.4 812.8,337.1 807.6,326.9 808.7,317.6 817,309.9 822.200000000001,305.1 825,300.1 824.1,292.9 822,275.4 824.9,259.5 838.300000000001,246.5 840.6,244.2 841.200000000001,239.4 841.400000000001,235.8 841.900000000001,228.4 841.600000000001,220.9 841.600000000001,212.7 846.200000000001,212.3 850.300000000001,211.9 854.300000000001,211.6 753.8,75.8 522.7,-19.5 301.7,88.2 63.8,204 -9.8,474 78.2,677.4 78.5,674.1 79.1,672.4 78.8,670.8 76.9,659.1 80,650.9 92.6,647.4 94.9,646.7 96.7,642.5 97.8,639.6 98.6,637.3 98.4,634.3 97.9,631.9 93.9,612.1 103.7,596.5 114.3,581.7 117.1,577.9 124,576.9 129.1,574.6 134,582.5 132.4,588.3 128,593.7 117.5,606.8 111.7,621.5 112.8,639.2 115.6,639.3 118.4,639.4 120.9,639.5 121.6,638.5 122.2,638 122.2,637.5 122.5,615.2 135.5,598.8 147.4,581.8 149.3,579 150.5,573.4 149,571 145.4,565.2 147.8,561.5 150,556.1 158.9,534 179.7,534.5 197.8,530.7 203.1,529.5 209.6,533.7 216.8,535.9L216.8,522.9C217.3,522.5 217.5,522.1 217.8,522.1 241.5,520.5 257.9,507.4 270.6,488.7 275.7,481.1 283.6,482.4 290.9,481.9 310.6,480.6 310.4,480.7 313.2,461.2 314.1,454.8 313.6,449.7 307,446.7 305.3,445.9 303.9,444.3 302.1,443.4 292.8,438.7 287.9,431.8 289.5,420.9 290,417.7 290,414.1 288.8,411.2 282.8,396.8 289.7,386.6 298.9,376.7 304.7,370.5 309.6,363.6 314.8,356.9 315.8,355.6 317.6,354.4 317.7,353.1 318.6,335.4 334.1,332.5 345.6,326.2 360.3,318 367.6,307.5 365.4,289.6 363.6,274.2 365.2,258.4 364.9,242.8 364.8,236.2 365.5,231 374.4,230.9 372.7,220.8 371.8,211.4 369.5,202.4 367.9,196.2 369,191.6 373.3,187.4 383.1,178 385.6,166.8 382.6,153.7 380.1,142.8 383.3,133.3 388.6,123.2 397.8,105.8 409,90.1 425.6,80.3 433.6,75.6 445.3,77 455.3,76.2 455.5,76.2 457.8,83.8 456.4,86.4 454.4,90.1 450.1,92.9 446.3,95.3 439.5,99.6 439.1,105.1 441.4,112.1 443.2,117.5 444,123.2 445,127.7 437.3,130.9 430.9,133.6 424.1,136.4 429.8,144.4 434.1,150.4 438.2,156.3 435.9,158.2 435.4,158.6 434.9,159 431.6,161.3 428.4,163.7 425.1,166 428.8,167.8 432.5,169.9 436.4,171.1 453.3,176.5 470.1,181 479.1,199.7 484.5,210.9 493.5,220.6 501.9,230 507.8,236.5 508.1,242.6 506.1,250.3 503.8,258.9 500.2,267.4 506.8,276.3 510.1,280.9 513.1,282.5 518.5,282.6 526.1,282.7 534.4,282.5 540.9,285.5 550.9,290.1 557.9,298.1 556.3,310.9 555.8,315 557.5,319.3 557.5,323.5 557.7,341.2 561.8,357.1 575,370.4 579.9,375.4 581.4,383.9 585.2,392.6 569,393.8 561.3,402.6 555.4,414.1 554.3,416.2 549.3,417.3 546.2,417.2 526.5,416.7 507.4,417.8 489.2,426.8 484,429.4 480.8,431.5 480.9,437.9 481,443.7 480.3,449.7 478.4,455.1 474.2,466.9 467.1,475.2 452.6,471.9 443.3,469.8 437.7,474.2 433.4,482.4 428.3,492.1 423,502.3 410.1,503.9 404.5,493.9 383,493.1 375.8,502.9 371.6,508.6 349.6,517.3 343.6,514.4 339.3,512.3 335.4,507.9 332.9,503.6 324.8,490.2 313.8,486.8 299.3,491.8 294.2,493.5 288.6,494.1 283.2,495.2 282.2,509.1 281.2,522.3 280.2,535.9 271.5,537.5 263.3,539.1 254.8,540.7 256.4,551 268.8,558.7 260.5,571.8 251.2,565.7 241.9,559.6 232.6,553.5 226.8,549.7 208.4,548.2 204.9,552.7 199.5,559.7 195.6,567.3 198.2,577.7 204,600.4 217.3,615.3 239.5,622.5 242.5,623.5 245.9,623.6 249.1,623.7 264,623.8 279,623.7 295.4,623.7 292.1,608.4 300.1,601.9 314,599.7 314,603.2 314.6,606.8 313.9,610.1 310.4,625.4 319,634.4 330.1,642.2 335.2,645.7 340.3,649.2 345.6,652.4 352,656.2 357.5,660.2 357.1,668.8 357,670.7 358.6,673.1 360.1,674.7 373.5,688.8 386.3,703.2 404.3,712.4 413.2,716.9 419.9,726 427,733.5 432.8,739.8 438.1,740.5 444.7,733.3 447.4,736.7 449.4,739.2 451.8,742.3 448.2,743.2 445,743.3 442.9,744.8 440.5,746.5 437.1,749.8 437.4,751.8 437.8,754.4 441.5,758 444,758.2 448.1,758.4 453.4,757.4 456.3,754.8 463.1,748.7 474.8,748 481.3,754.2 483,755.8 486.3,755.6 488.9,756.3 488.6,753.4 489.4,749.7 487.9,747.7 481.1,738.5 481.4,736.7 491.9,733.4 499.1,731.2 506.5,729.1 513.7,727 517.6,736.4 514.5,740.8 507,743.2 505.2,743.8 503.2,744.5 501.7,745.6 499.4,747.4 497.4,749.7 495.2,751.7 497.5,753.2 499.9,754.5 502,756.2 505.2,758.7 509.8,760.9 510.8,764.2 512.8,770.5 512.2,777.1 504.1,780 495.5,783.1 492.6,789.5 493.5,798.2 493.9,802.4 493.6,806.6 493.6,812 482.5,807.8 472.4,803.9 460.4,799.3 461.2,808.4 461.7,814.5 462.3,821.6 452.1,824.1 442.1,828.5 432.2,828.2 426.8,828 421.7,819.9 416.5,815.3 416,814.9 416.3,813.4 416.4,812.5 418.9,796 416.1,783.7 395.9,781.1 391.9,780.6 389.3,771.8 385.5,767.3 382.4,763.7 378.6,760.7 375,757.5 374,758.2 373,758.9 372,759.6L372,782.8C361.4,786 351.2,787.6 342.7,792.1 330.9,798.3 331.4,811.5 342.7,817.8 358.8,826.6 375,835 392.4,844.3 394.2,837.3 395.2,833.3 396.7,827 404.4,831.3 411.2,835.1 418,838.9 416.6,841.2 414.8,844.3 414.3,845.2 422.7,850.8 429.5,857.1 437.6,860.2 446.8,863.7 457,865.7 466.8,865.7 471.9,865.7 477,860.1 483.9,855.9 471.6,849.2 461.2,843.6 448.4,836.7 464.6,832.9 478.2,829.6 492.2,826.3 493.4,829 494.6,830.9 495.1,833.1 496.5,839.7 500.3,842.4 506.9,841.2 516.4,839.5 521.6,843.8 523.2,853.8 519.5,855 515.6,856.3 511.8,857.6 511.5,858.2 511,858.8 511,859.3 513,870.8 508.1,877.2 496.9,880.2 491,881.8 485.5,884.8 479.9,887.6 463.3,896 447.3,891.5 431.1,886 422.4,883.1 419.6,877.6 421.6,868.9 422.2,866.4 421.9,863.8 422.2,858.6 415.5,860.8 407.1,861 404.7,864.9 397.3,876.9 412.5,880 417.5,890.2 406.5,890.2 396.8,890.6 387.2,890 380.2,889.6 379.3,887.9 376.9,877.9 379.9,877.1 382.9,876.3 386,875.6 387.8,866.9 384.1,863.5 375.8,863.6 370.4,863.6 364.9,863.9 362.1,857 361.4,855.3 355.7,855.4 352.3,855.3 346.8,855.1 341.3,855.2 334.8,855.2 334.1,860.1 333.4,864.8 332.5,871 349.2,867.9 361.5,873.6 369.8,887.5 365.1,892.6 361.1,891.6 356.2,886.7 346.5,876.8 332,878.2 324,889.1 317.2,898.5 297.7,902.1 287.9,895.5 281,890.7 274.3,885.5 267.6,878.2 272.2,878.2 276.8,878.3 281.3,878.2 291.5,878.1 293,875.2 286.5,864.4 292.7,864.4 298.1,864.3 303.5,864.4 309.6,864.6 314.7,863.7 315,855.4L287.4,855.4C283.3,867.1 271.8,864.7 263.3,867.6 254.4,870.8 244.9,872.4 236.4,874.5 257.4,904 383.3,951.7 459.8,958.5 472.4,959.6 484.9,960.2 497.3,960.3 617.3,960.6 727.5,913.4 805,843.3z M413.9,993.1C315.6,975.6 230.1,932.3 157.7,863.7 100.6,809.6 58.4,745.6 31.3,671.7 15.3,627.8 5.59999999999998,582.6 2.59999999999998,535.9 2.39999999999998,532.1 1.49999999999998,528.2 0.999999999999984,524.4L0.999999999999984,471.7C3.49999999999998,452.8 5.29999999999998,433.7 8.79999999999998,415 36.9,264.9 116.8,150.3 246.9,70.9000000000001 313.4,30.3 386.3,8.1 464.2,2.6 466.7,2.4 469.2,1.5 471.7,1L528.4,1C549.9,3.9 571.6,6 593,9.9 665.7,23.1 732.2,51.5 791.9,94.9 884.3,162.1 947.4,250.5 980.5,360 990.9,394.3 996.6,429.5 999.5,465.2 999.7,467.4 1000.5,469.5 1001.1,471.7L1001.1,522.5C999.2,539.2 997.7,555.9 995.5,572.6 987.8,630.2 970,684.7 942.3,735.6 892.8,826.5 822.7,897.1 730.5,945 670.7,976.1 607.1,994.3 539.8,999.3 536.6,999.5 533.5,1000.4 530.3,1001L471.7,1001C452.4,998.4,433,996.5,413.9,993.1z" />

<glyph unicode="&#xe727;" glyph-name="earth-node" d="M711.1,455.5L720.5,455.5 748.7,452.4C761.2,452.4 776.9,446.1 783.2,439.9 789.5,433.6 805.1,414.8 805.1,408.6 805.1,402.3 811.4,386.7 817.6,383.5 823.9,380.4 833.3,364.7 830.2,352.2L820.8,320.9C817.6,311.5 811.4,299 808.3,295.8 805.1,292.7 789.5,283.3 789.5,277 789.5,273.8 780.1,255.1 770.7,245.7L733,214.2C723.6,208 714.2,201.7 714.2,201.7 714.2,201.7 704.8,198.6 695.4,195.5 686,192.4 660.9,195.5 667.2,204.9L698.5,280.1C701.7,289.5 701.7,302 695.4,308.3 692.3,314.6 673.5,336.5 670.3,349.1L664,374.2C660.9,383.6 660.9,399.3 664,402.4 667.2,405.6 679.7,418.1 685.9,418.1 689.1,418.1 695.3,427.5 695.3,436.9L695.3,455.7 711.1,455.7z M275.6,533.8C272.4,524.4,269.3,518.1,269.3,508.7L118.9,458.6C115.8,468 106.4,474.3 97,480.5 65.7,496.2 24.9,483.6 9.3,452.3 -6.4,421 6.2,380.2 37.5,364.5 50,358.2 65.7,355.1 78.3,358.2L128.4,242.3C122.1,236 115.9,229.8 112.7,220.4 97,189.1 109.5,148.3 140.9,132.7 172.2,117 213,129.5 228.7,160.9 244.4,192.2 231.8,233 200.5,248.6 188,254.9 172.3,258 159.8,254.9L109.5,374C115.8,380.3 122.1,386.5 125.2,392.8 131.5,402.2 131.5,414.7 131.5,427.2L272.5,480.5C278.8,464.8 288.2,452.3 303.8,446 335.1,430.3 375.9,442.9 391.5,474.2 407.2,505.5 394.7,546.3 363.3,562 353.9,565.1 341.4,568.3 332,568.3 310,565.2 288.1,552.6 275.6,533.8z M438.5,790.7C447.9,787.6 485.5,781.3 488.7,784.5 494.9,787.6 520,790.7 529.4,787.6 541.9,787.6 579.5,778.2 592.1,778.2L673.6,778.2C686.1,778.2 698.7,771.9 698.7,765.7 698.7,759.4 695.6,737.5 686.2,737.5 676.8,737.5 651.7,731.2 648.6,728.1 645.5,725 648.6,709.3 658,699.9L683.1,678C689.4,668.6 698.8,662.3 701.9,662.3 705,662.3 711.3,668.6 711.3,681.1 711.3,690.5 717.6,715.6 723.8,715.6 727,715.6 745.7,709.3 748.9,703.1 752,696.8 761.4,681.2 764.6,681.2 767.7,684.3 777.1,674.9 783.4,665.5L805.3,627.9C808.5,615.4 805.3,606 799,602.8 792.7,599.7 764.5,590.3 758.2,587.1 752,584 726.9,568.3 720.6,558.9 714.3,549.5 695.5,521.3 695.5,518.1 695.5,511.9 692.4,499.3 689.2,499.3 686,499.3 679.8,502.4 676.7,508.7 673.5,511.9 661,524.4 651.6,524.4 642.2,524.4 614,515 610.9,508.7 610.9,502.4 604.6,483.6 607.8,480.5 610.9,477.4 617.2,468 617.2,468L617.2,461.7C617.2,458.6 607.8,458.6 598.4,461.7 589,464.9 554.5,483.6 548.3,493L526.4,527.5C520.1,536.9 510.7,552.6 507.6,562 501.4,571.4 491.9,602.7 491.9,615.3 495,627.8 491.9,665.5 485.6,674.8 485.6,674.8 479.4,684.2 473.1,693.6 466.9,703 454.3,712.4 448,715.5 441.8,718.6 419.8,721.7 413.5,718.6 407.3,712.4 388.4,696.7 382.2,690.4 375.9,684.1 363.4,668.5 366.5,674.7 369.7,681 379,696.6 375.9,696.6 372.8,696.6 366.5,699.8 366.5,702.9 366.5,705.999999999999 366.5,721.699999999999 369.7,724.8 372.8,731 379.1,740.5 375.9,740.5 372.8,740.5 366.5,740.5 366.5,743.6 366.5,746.8 369.7,756.1 372.8,756.1 372.8,756.1 379.1,759.3 379.1,762.4 379.1,762.4 382.3,771.8 388.5,778.1 394.8,784.4 416.7,790.6 429.3,790.6L438.5,790.6z M253.6,571.4C275.5,590.2 300.6,599.6 328.8,599.6 394.6,599.6 444.7,552.6 444.7,489.9 444.7,430.4 391.4,380.2 328.8,380.2 303.7,380.2 278.7,389.6 259.9,402.1 303.8,242.3 447.9,123.3 623.4,123.3 833.3,123.3 1002.5,292.5 1002.5,502.4 1002.5,712.3 833.3,881.5 623.4,881.5 441.7,881.6 288.1,750 253.6,571.4z" />

<glyph unicode="&#xe728;" glyph-name="facebook" d="M8,945.3L8,59.7C8,28.1,31,2.5,59.4,2.5L517.1,2.5 517.1,413.4 406.1,413.4 406.1,546.9 517,546.9 517,626.7C517,713.5,586.3,783.9,671.8,783.9L812.6,783.9 812.6,650.4 747.6,650.4C715.6,650.4,689.7,624.1,689.7,591.6L689.7,546.9 812.6,546.9 812.6,413.4 689.8,413.4 689.8,2.5 945.6,2.5C974,2.5,997,28.1,997,59.7L997,945.4C997,977,974,1002.6,945.6,1002.6L59.4,1002.6C31,1002.5,8,976.9,8,945.3z" />

<glyph unicode="&#xe729;" glyph-name="twitter" d="M219.2,966.4C198.7,942.3,188.4,912.6,188.4,877.3L188.4,376.3C188.4,273.2 219.2,185.3 280.7,112.1 342.2,39 416.3,2.5 503.2,2.5L711.3,2.5C740.2,2.5 765,14.8 785.6,39.3 806.2,63.8 816.6,93.2 816.6,127.5 816.6,161.8 806.3,191.2 785.6,215.8 765,240.3 740.1,252.6 711.2,252.6L503,252.6C474,252.6 449.4,264.7 429.3,288.7 409,312.8 398.9,342 398.9,376.5L398.9,464.3 695.5,464.3C722.3,464.3 745.3,475.8 764.4,498.4 783.5,521.2 793.1,548.5 793.1,580.2 793.1,612 783.5,639.3 764.3,662 745.1,684.8 722.1,696.1 695.1,696.1L398.9,696.1 398.9,877.5C398.9,911.8 388.6,941.3 368.1,965.8 347.7,990.3 323,1002.6 294.3,1002.6 264.7,1002.5 239.7,990.4 219.2,966.4z" />

<glyph unicode="&#xe72a;" glyph-name="bird" d="M527.5,593.1C527.5,593.1 605.6,549.3 696.2,568.1 696.2,568.1 555.6,352.5 374.3,458.7 374.3,458.7 255.6,571.2 377.4,643.1 377.4,643.1 383.6,649.3 399.3,649.3 421.2,649.4 461.9,640 527.5,593.1z M193.1,777.5C208.7,777.5 221.2,768.1 221.2,755.6 224.3,740 214.9,724.3 199.3,721.2 183.7,718.1 168,727.4 164.9,743.1 161.8,758.7 171.2,774.4 186.8,777.5L193.1,777.5z M774.4,696.2C577.5,527.5 480.7,671.2 480.7,671.2 365,868.1 308.7,874.4 308.7,874.4 143.1,927.5 80.6,774.4 80.6,774.4L2.5,768.2 86.9,690 30.7,621.3 102.6,621.3C121.2,465 230.6,349.4 230.6,349.4 286.9,286.9 358.7,268.1 418.1,265L421.2,265 386.8,133.7 408.7,133.7 433.7,265 436.8,265C474.3,265,508.7,271.2,530.6,277.5L493.1,121.2 524.4,114.9 546.3,280.5C552.6,283.6 555.7,283.6 555.7,283.6 730.7,368 796.3,555.5 796.3,555.5 833.8,671.1 1002.6,799.3 1002.6,799.3 999.5,811.8 955.7,814.9 955.7,814.9 980.7,849.3 958.8,889.9 958.8,889.9 915,805.6 774.4,699.4 774.4,696.2z" />

<glyph unicode="&#xe72b;" glyph-name="twitter-bird" d="M489.7,668.7C489.7,655.4 491.5,642.5 495,630.1 324.5,637.2 173.3,704.6 72.1,807.1 54.4,782.1 44.3,753 44.3,721.9 44.3,663.1 80.5,611.2 135.6,580.8 102,581.7 70.3,589.3 42.7,602 42.7,601.3 42.7,600.6 42.7,599.9 42.7,517.8 113.4,449.3 207.3,433.8 190.1,429.9 172,427.8 153.3,427.8 140.1,427.8 127.2,428.9 114.7,430.9 140.8,363.6 216.6,314.6 306.3,313.2 236.1,267.8 147.6,240.7 51.5,240.7 35,240.7 18.6,241.5 2.6,243.1 93.3,195 201.1,166.9 317,166.9 694.3,166.9 900.7,425.1 900.7,649 900.7,656.3 900.5,663.7 900.1,670.9 940.2,694.8 975,724.6 1002.5,758.6 965.7,745.1 926.2,736 884.7,731.9 927.1,752.9 959.6,786.1 974.9,825.6 935.3,806.2 891.3,792.1 844.6,784.5 807.2,817.4 753.8,838 694.8,838 581.5,838.1 489.7,762.2 489.7,668.7z" />

<glyph unicode="&#xe72c;" glyph-name="pinterest" d="M438.2,976.4C224.7,958.7 11.8,830.4 3,647.2 -2.5,535.3 40.3,451.3 183.7,427.7 245.9,509.2 163.7,527.1 150.9,586.2 98.1,827.9 526.2,992.8 750.3,824 905.3,707.1 803.3,347.8 553.2,385.1 313.7,420.8 670.4,706.9 479.3,763.1 323.9,808.7 241.4,623.4 315,531.4 271.8,373.1 178.8,224 216.5,25.4 338.6,91.2 379.8,217.1 413.6,348.5 474.9,320.8 507.8,292 586,287.5 874.7,270.9 1036,501.4 996.6,714.2 964.9,885.2 753.8,980 513.5,979.6 488.7,979.6 463.5,978.5 438.2,976.4z" />

<glyph unicode="&#xe72d;" glyph-name="boy-01" d="M501,164.5C547.7,164.5,585.1,192.5,603.8,229.9L398.1,229.9C416.8,192.5,457.3,164.5,501,164.5z M603.7,485.4C603.7,454.2 628.6,432.4 656.7,432.4 687.9,432.4 709.7,457.3 709.7,485.4 709.7,516.6 684.8,538.3 656.7,538.3 628.7,538.3 606.9,516.5 603.7,485.4z M295.3,485.4C295.3,454.2 320.2,432.4 348.3,432.4 379.5,432.4 401.3,457.3 401.3,485.4 401.3,516.6 376.4,538.3 348.3,538.3 320.3,538.3 295.3,516.5 295.3,485.4z M828,553.9C840.5,286 703.4,167.6 703.4,167.6 519.6,-10 342.1,130.2 342.1,130.2 99.1,317.1 195.7,628.6 195.7,628.6L314.1,619.3C292.3,591.3 217.5,569.5 217.5,569.5 488.5,547.7 647.4,681.7 647.4,681.7 653.6,647.4 828,557 828,553.9z M229.9,937.1L292.2,937.1C292.2,937.1,80.4,828,74.1,560.1L77.2,550.8 74.1,547.7C61.7,522.8 55.4,491.6 55.4,460.5 55.4,392 86.6,335.9 130.2,314.1L133.3,314.1 133.3,311C189.4,130.2 329.6,2.5 497.8,2.5 666,2.5 809.4,130.2 865.4,314L868.5,314C915.2,329.6 949.5,388.7 949.5,457.3 949.5,491.5 943.3,519.6 930.8,544.5L927.7,550.7 927.7,553.8C930.8,613 918.4,759.4 781.3,890.2 781.3,890.2 846.7,871.5 856.1,865.3 856.1,865.3 784.4,974.3 616.2,974.3 616.2,974.3 541.5,1002.3 448,1002.3 376.3,1002.5 295.3,990 229.9,937.1z" />

<glyph unicode="&#xe72e;" glyph-name="infant" d="M448,219C448,194.1 469.8,172.3 494.7,172.3 519.6,172.3 541.4,194.1 541.4,219 541.4,243.9 519.6,265.7 494.7,265.7 469.8,265.7 448,243.9 448,219z M563.2,306.2C563.2,296.9 557,290.6 544.5,284.4 563.2,268.8 575.7,243.9 575.7,219 575.7,175.4 538.3,138 494.7,138 451.1,138 413.7,175.4 413.7,219 413.7,243.9 426.2,265.7 444.9,281.3 432.4,287.5 423.1,293.8 423.1,303.1 423.1,321.8 454.3,334.3 494.8,334.3 535.2,334.3 566.4,321.8 563.2,306.2z M675.4,496.3C675.4,474.5 659.8,458.9 638,458.9 616.2,458.9 600.6,474.5 600.6,496.3 600.6,518.1 616.2,533.7 638,533.7 656.7,533.7 675.4,518.1 675.4,496.3z M385.7,496.3C385.7,474.5 367,458.9 348.3,458.9 326.5,458.9 310.9,474.5 310.9,496.3 310.9,518.1 326.5,533.7 348.3,533.7 367,533.7 382.6,518.1 385.7,496.3z M460.5,842.1C270.4,826.5,114.7,701.9,71,533.7L67.9,527.5 64.8,527.5C30.5,524.4 2.50000000000001,487 2.50000000000001,440.3 2.50000000000001,393.6 33.7,353.1 74.2,356.2 117.8,178.5 292.2,44.6 500.9,44.6 709.6,44.6 884.1,178.5 927.7,356.1L930.8,356.1 933.9,356.1C971.3,356.1 1002.4,393.5 1002.4,443.3 1002.4,493.1 971.2,530.5 933.9,530.5L930.8,530.5 927.7,536.7C884.1,701.8,734.5,826.4,547.6,845.1L547.6,848.2C556.9,898 525.8,960.4 525.8,960.4 519.7,904.4 485.4,867 460.5,842.1z" />

<glyph unicode="&#xe72f;" glyph-name="nurse-01" d="M699.4,205.6L699.4,158.7 652.5,158.7C646.3,158.7 640,152.5 640,146.2 640,139.9 646.3,133.7 652.5,133.7L699.4,133.7 699.4,86.9C699.4,80.6 705.7,74.4 711.9,74.4 718.2,74.4 724.4,80.6 724.4,86.9L724.4,133.8 771.3,133.8C777.5,133.8 783.8,140 783.8,146.3 783.8,152.5 777.5,158.8 771.3,158.8L727.5,158.8 727.5,205.7C727.5,212 721.3,218.2 715,218.2 708.8,218.1 702.5,215 699.4,205.6z M802.5,149.4C802.5,102.5 765,61.9 715,61.9 668.1,61.9 627.5,99.4 627.5,149.4 627.5,196.3 665,236.9 715,236.9 761.9,236.9 802.5,196.3 802.5,149.4z M83.8,115L83.8,2.5 921.3,2.5 921.3,115C921.3,243.1 821.3,352.5 696.3,368.1 655.7,340 611.9,318.1 561.9,308.7L558.8,308.7 552.6,296.2C540.1,268.1 524.5,240 502.6,214.9 483.8,239.9 465.1,268 452.6,302.4L449.5,308.6C396.4,314.8 349.5,336.7 308.9,368 180.6,352.5 83.8,246.3 83.8,115z M649.4,740L624.4,749.4C590,761.9 546.3,768.2 502.5,768.2 424.4,768.2 365,749.4 365,749.4L340,743.2 268.1,893.2 265,886.9C233.7,821.3 233.7,752.5 233.7,752.5 233.7,699.4 230.6,640 196.2,593.1 186.8,580.6 174.3,571.2 161.8,561.8 158.7,558.7 133.7,539.9 127.4,543.1 177.4,515 227.4,486.8 271.2,449.3 286.8,433.7 308.7,389.9 336.8,414.9 346.2,424.3 349.3,436.8 346.2,449.3L346.2,452.4C386.8,414.9 443.1,393 502.5,393 568.1,393 624.4,418 668.1,461.8L671.2,464.9 668.1,458.7C655.6,439.9 646.2,418.1 677.5,411.8 727.5,402.4 752.5,455.5 786.9,483.7 802.5,499.3 821.3,508.7 840,521.2 843.1,524.3 858.8,539.9 868.1,536.8 796.2,561.8 771.2,658.7 768.1,724.3 768.1,752.4 768.1,780.6 771.2,808.7 771.2,808.7 774.3,852.5 743.1,902.5L649.4,740z M511.9,965L511.9,918.1 555.6,918.1C558.7,918.1 565,915 565,908.7 565,905.6 561.9,899.3 555.6,899.3L511.9,899.3 511.9,861.8C511.9,858.7 508.8,852.4 502.5,852.4 499.4,852.4 493.1,855.5 493.1,861.8L493.1,905.5 449.4,905.5C446.3,905.5 440,908.6 440,914.9 440,921.1 443.1,924.3 449.4,924.3L493.1,924.3 493.1,968C493.1,971.1 496.2,977.4 502.5,977.4 508.7,977.5 515,971.3 511.9,965z M290,918.1L358.8,780.6C358.8,780.6,505.7,824.4,640.1,780.6L715.1,918.1C715.1,918.1 621.3,1002.5 496.3,1002.5 433.7,1002.5 361.9,980.6 290,918.1z" />

<glyph unicode="&#xe730;" glyph-name="nurse" d="M699.4,205.6L699.4,158.7 652.5,158.7C646.3,158.7 640,152.5 640,146.2 640,139.9 646.3,133.7 652.5,133.7L699.4,133.7 699.4,86.9C699.4,80.6 705.7,74.4 711.9,74.4 718.2,74.4 724.4,80.6 724.4,86.9L724.4,133.8 771.3,133.8C777.5,133.8 783.8,140 783.8,146.3 783.8,152.5 777.5,158.8 771.3,158.8L727.5,158.8 727.5,205.7C727.5,212 721.3,218.2 715,218.2 708.8,218.1 702.5,215 699.4,205.6z M802.5,149.4C802.5,102.5 761.9,61.9 715,61.9 668.1,61.9 627.5,99.4 627.5,149.4 627.5,196.3 665,236.9 715,236.9 761.9,236.9 802.5,196.3 802.5,149.4z M83.8,115L83.8,2.5 921.3,2.5 921.3,115C921.3,243.1 821.3,352.5 696.3,368.1 643.2,327.5 574.4,302.5 502.6,302.5 430.7,302.5 362,327.5 308.8,368.1 180.6,352.5 83.8,246.3 83.8,115z M655.6,733.7L627.5,743.1C590,755.6 549.4,761.9 505.6,761.9 427.5,761.9 368.1,743.1 368.1,743.1L336.8,733.7 318.1,771.2C286.8,733.7 268.1,680.6 268.1,627.4 268.1,499.3 374.3,393 502.5,393 630.7,393 736.9,499.3 736.9,627.4 736.9,683.7 718.1,736.8 683.8,777.4L680.7,780.5 655.6,733.7z M511.9,965L511.9,918.1 555.6,918.1C558.7,918.1 565,915 565,908.7 565,905.6 561.9,899.3 555.6,899.3L511.9,899.3 511.9,861.8C511.9,858.7 505.7,852.4 502.5,852.4 499.3,852.4 493.1,855.5 493.1,861.8L493.1,905.5 449.4,905.5C446.3,905.5 440,908.6 440,914.9 440,921.1 443.1,924.3 449.4,924.3L493.1,924.3 493.1,968C493.1,971.1 496.2,977.4 502.5,977.4 508.7,977.5 515,971.3 511.9,965z M290,918.1L358.8,780.6C358.8,780.6,505.7,824.4,640.1,780.6L715.1,918.1C715.1,918.1 621.3,1002.5 496.3,1002.5 433.7,1002.5 361.9,980.6 290,918.1z" />

<glyph unicode="&#xe731;" glyph-name="ninja-02" d="M97.2,407C-34.3,325.7,9.5,37.7,9.5,37.7L995.5,37.7C995.5,37.7,1039.3,325.7,907.9,407L695,422.7C695,422.7,648,313.1,510.3,319.4L507.2,319.4C375.7,313.2,313.1,422.7,313.1,422.7L97.2,407z M644.9,745.1C616.7,710.7 566.6,688.8 544.7,682.5 538.4,679.4 538.4,679.4 538.4,676.2 538.4,673.1 541.6,673.1 544.7,670 638.6,594.9 651.1,707.5 654.2,742L654.2,748.3C651.2,748.2,651.2,745.1,644.9,745.1z M363.2,738.8C366.4,704.4 378.9,591.7 472.8,666.8 475.9,670 479.1,670 479.1,673.1 479.1,676.2 479.1,676.2 472.8,679.4 450.9,685.6 400.8,707.6 372.6,742 369.5,745.1 369.5,748.3 366.3,748.3L363.2,738.8z M704.4,701.3C704.4,638.7 613.6,588.6 504.1,588.6 391.4,588.6 303.8,638.7 303.8,701.3 303.8,763.9 394.6,814 504.1,814 616.8,813.9 704.4,763.8 704.4,701.3z M244.3,679.3C244.3,522.8 360.1,394.5 504.1,394.5 648.1,394.5 763.9,519.7 763.9,679.3 763.9,716.9 757.7,754.4 745.1,788.9 788.9,751.3 832.8,779.5 832.8,779.5L823.4,851.5C795.2,835.8 738.9,839 717,839 717,842.1 713.9,842.1 713.9,845.3 792.2,835.9 842.2,898.5 842.2,898.5L779.6,967.4C770.2,936.1 726.4,889.2 701.3,867.2 651.2,929.8 582.4,967.4 504.1,967.4 363.2,967.3 247.4,839 244.3,679.3z" />

<glyph unicode="&#xe732;" glyph-name="beaker" d="M846.3,187.4C846.3,143.7 880.7,109.3 924.4,109.3 968.1,109.3 1002.5,143.7 1002.5,187.4 1002.5,228 924.4,315.5 924.4,315.5 924.4,315.5 846.3,228 846.3,187.4z M327.5,274.9C327.5,240.5 299.4,212.4 265,212.4 230.6,212.4 202.5,240.5 202.5,274.9 202.5,309.3 230.6,337.4 265,337.4 302.5,337.4 330.6,309.3 327.5,274.9z M521.2,365.5C521.2,343.6 502.5,324.9 480.6,324.9 458.7,324.9 440,343.7 440,365.5 440,387.4 458.7,406.1 480.6,406.1 502.5,406.1 521.2,387.4 521.2,365.5z M2.5,559.3C2.5,528.1 27.5,503.1 58.7,503.1 89.9,503.1 114.9,528.1 114.9,559.3 114.9,590.5 89.9,615.5 58.7,615.5 27.5,615.5 2.5,590.5 2.5,559.3z M71.2,371.8C-3.8,299.9 -10,181.1 58.7,103 130.6,28 249.3,21.8 327.4,90.5L846.2,562.4 815,596.8 755.6,543.7 577.6,562.4 577.7,565.1C577.8,594 556.7,618.9 527.4,621.8 496.1,624.9 471.2,606.2 464.9,578.1L464.9,571.8 577.2,559.3 577.1,556.6C574.2,528.1 550.4,506.1 521.1,506.1 489.8,506.1 464.9,531.1 464.9,562.3L464.9,568.5 464.9,571.6 377.4,581 624.4,803 593.1,837.4 71.2,371.8z M577.5,903L915,528 980.6,587.4 643.1,962.4 577.5,903z" />

<glyph unicode="&#xe733;" glyph-name="audit" d="M332.9,327.5L446.6,327.5C448.2,346.5,452.2,365.2,458.6,383.2L332.9,383.2 332.9,327.5z M667.9,411.6C697.5,410.9 726.5,397.6 746.1,372.6 781.1,328.1 773.4,263.6 729,228.7 684.5,193.6 620.1,201.3 585.1,245.8 550.1,290.3 557.8,354.7 602.3,389.7 620.5,404 642.1,411.2 663.7,411.6 665.2,411.5 666.7,411.5 667.9,411.6z M558.5,445.3C483.3,386.1 470.3,277.2 529.4,202 578.9,139 663.2,119.9 733.4,149.8L849.3,2.5 922.8,60.2 806.4,208.2C850.2,269.3 850.6,354.2 801.8,416.3 768.5,458.6 719.5,481.2 669.6,482.4 667.2,482.5 664.7,482.5 662.3,482.4 625.9,481.7 589.4,469.5 558.5,445.3z M332.9,466.9L512.1,466.9C517.5,472.2 523.3,477.4 529.5,482.2 554.9,502.1 583.7,515.2 614.1,522.5L332.9,522.5 332.9,466.9z M197,818.6L197,194.3C197,148.3,234.4,110.9,280.4,110.9L569.4,110.9C539.9,125.2 513.6,146.2 492.6,172.9 491.4,174.4 490.5,176.1 489.3,177.6L280.5,177.6C271.3,177.6,263.8,185.1,263.8,194.3L263.8,818.5C263.8,827.7,271.3,835.2,280.5,835.2L557,835.2 561.4,689.7C561.4,689.7,567.2,593.5,673.2,605.1L764.1,607.6 764.1,506.1C789.2,493.5,811.7,475.9,830.8,454.2L830.8,617.7 797.8,652.5 797.8,653.4 624.8,835.3 625.2,835.3 671.4,786.5 622.9,837.9 622.2,837.9 620.7,839.5 620.6,839.5 561.3,902 280.5,902C234.3,902,197,864.6,197,818.6z M82.1,943.8L82.1,320.1 147.8,320.1 147.8,943.8 455.6,943.8 455.6,1002.5 147.9,1002.5 82.1,1002.5 82.1,943.8z" />

<glyph unicode="&#xe734;" glyph-name="armour" d="M952.5,570.4L952.5,417.3C952.5,417.3,758.8,139.2,533.8,95.4L533.8,570.4 952.5,570.4z M486.9,957.9L486.9,564.1 55.6,564.1 55.6,957.8 486.9,957.8z M2.5,423.5C2.5,423.5 52.5,179.8 455.6,7.89999999999998 561.8,-39 955.6,289.1 1002.5,414.1L1002.5,1001.6 2.5,1001.6 2.5,423.5z" />

<glyph unicode="&#xe735;" glyph-name="menu" d="M1,212.5L1,174C1,150.9,16.4,135.5,39.5,135.5L962.6,135.5C985.7,135.5,1001.1,150.9,1001.1,174L1001.1,212.5C1001.1,235.6,985.7,250.9,962.6,250.9L39.5,250.9C16.4,251,1,235.6,1,212.5z M1,520.2L1,481.7C1,458.6,16.4,443.2,39.5,443.2L962.6,443.2C985.7,443.2,1001.1,458.6,1001.1,481.7L1001.1,520.2C1001.1,543.3,985.7,558.6,962.6,558.6L39.5,558.6C16.4,558.7,1,543.3,1,520.2z M1,827.9L1,789.4C1,766.4,16.4,751,39.5,751L962.6,751C985.7,751,1001.1,766.4,1001.1,789.5L1001.1,828C1001.1,851.1,985.7,866.5,962.6,866.5L39.5,866.5C16.4,866.4,1,851,1,827.9z" />

<glyph unicode="&#xe736;" glyph-name="settings-02" d="M718.1,499.4C718.1,383.8 621.2,293.2 502.5,293.2 383.8,296.2 290,386.9 290,502.5 290,618.1 386.9,708.8 505.6,708.8 624.3,708.8 721.3,615 718.1,499.4z M380.6,986.9L361.9,877.5C318.1,861.9,280.6,843.1,246.3,815L140,849.4C77.5,790,33.8,718.1,8.8,633.8L96.3,565C93.2,546.2 90,524.4 90,502.5 90,480.6 93.1,461.9 96.3,440L2.5,374.4C24.4,290,71.3,215,130.6,155.6L236.9,196.2C271.3,168.1,311.9,146.2,352.5,130.6L368.1,21.2C411.9,8.8 455.6,2.5 499.4,2.5 546.3,2.5 590,8.8 630.7,18.1L649.5,127.5C693.2,143.1,730.7,161.9,765.1,190L871.4,155.6C933.7,215,977.5,290,1002.5,371.3L915,440C918.1,458.8 921.2,480.6 921.2,502.5 921.2,524.4 918.1,543.1 915,565L1002.5,630.6C980.6,715,933.7,790,874.4,849.4L768.2,808.8C733.8,836.9,693.2,858.8,652.6,874.4L637,983.8C596.4,996.3 552.6,1002.6 508.9,1002.6 465,1002.5 421.2,996.3 380.6,986.9z" />

<glyph unicode="&#xe737;" glyph-name="help" d="M457.9,297.2C446,285.3 440,270.6 440,252.9 440,235.7 445.9,220.8 457.9,208.2 469.9,196.1 484.9,190 503,190 521,190 535.9,195.9 547.7,207.8 559.2,219.7 565,234.7 565,252.9 565,270.8 559.2,285.6 547.4,297.2 535.6,309.1 520.8,315 503,315 484.9,315 469.9,309 457.9,297.2z M435.5,809C409.5,802.4,385.6,792.6,363.7,779.5L363.7,651C385,669.8 407.7,683.8 431.6,693.1 455.5,702.4 478.6,707 500.8,707 511.1,707 520.4,705.4 528.8,702.3 537.2,699.2 544.4,694.9 550.2,689.5 556,684.1 560.5,677.7 563.7,670.1 566.8,662.5 568.4,654.3 568.4,645.5 568.4,635.2 566.9,625.9 564.1,617.5 561.3,609.1 557,600.9 551.3,593.1 545.6,585.3 538.7,577.4 530.6,569.6 522.5,561.8 513,553.3 502.2,544.2 492,535.7 483,527.1 475.3,518.4 467.6,509.8 461.2,500.6 456.1,491.1 451,481.5 447.2,471.3 444.6,460.5 442.1,449.7 440.8,437.7 440.8,424.6 440.8,416.3 441.5,407.5 443.1,398.3 444.6,389 446.9,380.7 449.7,373.3L562.2,373.3C559,378.1 556.5,384.1 554.7,391.2 552.8,398.3 551.9,405.3 551.9,412.1 551.9,422 553.1,431 555.7,438.8 558.2,446.6 562,454 567,461 572,468 578.2,475.1 585.8,482.2 593.3,489.3 602.1,497 612.1,505.3 626.9,517.6 640,529.5 651.4,541 662.8,552.5 672.3,564.5 680,577.1 687.7,589.6 693.5,602.9 697.5,617 701.5,631.1 703.5,646.8 703.5,664.2 703.5,691.6 698.7,715 689.2,734.5 679.7,754 666.4,770.1 649.5,782.6 632.5,795.2 612.7,804.4 589.9,810.2 567.1,816 542.5,818.9 516,818.9 488.3,818.9 461.6,815.6 435.5,809z M940,502.5C940,261.2 743.7,65 502.5,65 261.3,65 65,261.3 65,502.5 65,743.7 261.2,940 502.5,940 743.7,940 940,743.8 940,502.5z M2.5,502.5C2.5,226.8 226.8,2.5 502.5,2.5 778.2,2.5 1002.5,226.8 1002.5,502.5 1002.5,778.2 778.2,1002.5 502.5,1002.5 226.8,1002.5 2.5,778.2 2.5,502.5z" />

<glyph unicode="&#xe738;" glyph-name="palette-01" d="M838.9,666.1C870.1,650.5 891.9,622.5 891.9,588.2 891.9,541.5 851.4,504.1 807.8,504.1L804.7,504.1C758,504.1 720.6,541.5 720.6,588.2 720.6,634.9 757.9,672.3 804.7,672.3 817.2,672.3 826.5,669.2 838.9,666.1z M231.4,666.1C259.5,653.6 284.4,622.5 284.4,588.2 284.4,541.5 243.9,504.1 200.3,504.1L194.1,504.1C147.4,504.1 110,541.5 110,588.2 110,634.9 147.4,672.3 194.1,672.3 203.4,672.3 215.9,669.2 231.4,666.1z M729.9,806.1C729.9,759.4 692.5,722 645.8,722 633.3,722 620.9,728.2 608.4,734.5 602.2,737.6 592.8,743.9 586.6,750.1 571,762.6 558.5,784.4 558.5,809.3 558.5,852.9 596,890.3 645.8,890.3 692.5,890.3 729.9,853 729.9,806.1z M446.4,806.2C446.4,784.4 433.9,762.6 418.3,747 402.7,731.4 384,722.1 359.1,722.1 312.4,722.1 275,759.4 275,806.2 275,849.8 309.3,881 349.8,887.2 356.1,887.2 359.2,890.3 365.4,890.3 409,890.3 446.4,853 446.4,806.2z M4.1,504.1C4.1,226.8 225.3,5.6 499.4,2.5 546.1,2.5 583.5,43 583.5,86.6 583.5,108.4 577.3,127.1 561.7,142.7 552.4,161.4 539.9,177 539.9,198.8 539.9,242.4 580.4,282.9 624,282.9L723.7,282.9C879.4,282.9 1000.9,404.4 1000.9,560.2 1000.9,803.2 779.7,1002.6 502.5,1002.6 225.3,1002.6 4.1,781.4 4.1,504.1z" />

<glyph unicode="&#xe739;" glyph-name="card-image" d="M483.8,340L415,340 415,280.6 846.2,280.6 846.2,340 799.3,340 799.3,468.1 790,468.1 724.4,468.1 724.4,358.7C694.1,392,599.3,495.7,491.2,527.7L483.8,529.7 483.8,340z M483.8,529.8L483.8,530.7 480.7,530.7 483.8,529.8z M205.6,121.3L143.1,115 74.4,715 146.3,721.2 205.6,121.3z M680.6,743.1C680.6,699.4 718.1,661.8 761.9,661.8 805.7,661.8 843.2,699.3 843.2,743.1 843.2,786.8 805.7,824.4 761.9,824.4 718.1,824.4 680.6,786.9 680.6,743.1z M265,796.2L265,733.7 265,149.4 199.4,830.6 265,836.9 265,796.2z M868.1,896.3L936.9,896.3 936.9,190 871.3,190 808.8,190 743.2,190 330.6,190 330.6,740 330.6,802.5 330.6,843.1 330.6,896.2 868.1,896.2z M268.1,899.4L130.6,886.9 140,780.6 2.5,768.1 80.6,46.2 208.7,58.7 902.5,124.3 1002.5,124.3 1002.5,958.7 268.1,958.7 268.1,899.4z" />

<glyph unicode="&#xe73a;" glyph-name="link-wf" d="M243.8,498.3L33.4,288C-7.8,246.8,-7.8,179.8,33.4,138.6L138.6,33.5C158.5,13.6 185.1,2.6 213.3,2.6 241.5,2.6 268,13.6 288,33.5L498.3,243.8C518.3,263.7 529.2,290.3 529.2,318.5 529.2,346.7 518.2,373.2 498.3,393.2L454.1,349C462.3,340.8 466.7,330 466.7,318.5 466.7,307 462.2,296.2 454.1,288L243.8,77.6C227.5,61.3,199,61.4,182.8,77.6L77.6,182.8C60.8,199.6,60.8,227,77.6,243.8L288,454.1C304.8,470.9,332.2,470.9,349,454.1L393.2,498.3C372.6,518.9 345.5,529.2 318.5,529.2 291.4,529.2 264.3,518.9 243.8,498.3z M638.1,682.4L322.6,366.9C310.4,354.7 310.4,334.9 322.6,322.7 328.7,316.6 336.7,313.5 344.7,313.5 352.7,313.5 360.7,316.6 366.8,322.7L682.3,638.2C694.5,650.4 694.5,670.2 682.3,682.4 676.2,688.5 668.2,691.5 660.2,691.5 652.2,691.5 644.2,688.5 638.1,682.4z M717,971.6L506.6,761.3C465.4,720.1,465.4,653.1,506.6,611.9L550.8,656.1C534,672.9,534,700.3,550.8,717.1L761.2,927.4C778,944.2,805.3,944.2,822.2,927.4L927.4,822.2C935.6,814 940,803.2 940,791.7 940,780.2 935.5,769.4 927.4,761.2L717,550.9C700.7,534.7,672.3,534.6,656,550.9L611.8,506.7C631.8,486.8 658.3,475.8 686.5,475.8 714.7,475.8 741.3,486.8 761.2,506.7L971.5,717C991.5,736.9 1002.4,763.5 1002.4,791.7 1002.4,819.9 991.4,846.4 971.5,866.4L866.4,971.6C845.8,992.2 818.7,1002.5 791.7,1002.5 764.7,1002.5 737.6,992.2 717,971.6z" />

<glyph unicode="&#xe73b;" glyph-name="drop-box" d="M295.7,206.2L207.3,264.3 207.3,198.4 503,21.4 797.9,199.4 797.9,263.5 709.7,206.2 503,376.9 295.7,206.2z M2.5,465.6L295.4,271.6 501,442.4 205.8,625.3 2.5,465.6z M504.4,443.1L708.8,271.6 1002.1,464.5 799.7,625.3 504.4,443.1z M503.4,810.5L799.8,627.5 1002.5,791 708.5,983.3 503.4,810.5z M3,789.3L205.8,628.6 500.7,811.2 296.8,983.7 3,789.3z" />

<glyph unicode="&#xe73c;" glyph-name="cloud-download" d="M256.4,599.7C240.7,602.8 225.1,606 209.4,606 96.6,606 2.5,508.8 2.5,386.5 2.5,264.2 93.4,167.1 209.4,167.1 218.8,167.1 225.1,170.2 234.5,170.2L485.3,170.2C485.3,170.2,485.3,173.3,482.1,173.3L479,173.3 475.9,176.5 472.7,179.6 322.2,345.7C316,352 312.8,361.4 312.8,370.8 312.8,380.2 316,389.6 322.2,395.9 334.8,408.5 356.7,408.5 369.2,395.9L466.4,289.3 466.4,618.5C466.4,627.9 469.5,637.3 475.8,643.6 482,649.9 488.3,653 497.7,653 504,653 510.2,649.9 516.5,646.8 525.9,640.5 532.2,631.1 532.2,618.6L532.2,283.1 629.4,389.7C641.9,402.2 663.9,402.2 676.4,389.7 688.9,377.2 688.9,352.1 676.4,339.5L522.9,173.3 519.7,170.2 516.6,170.2 513.5,167.1 770.5,167.1C776.8,163.9 786.2,163.9 795.6,163.9 805,163.9 811.3,167.1 820.7,167.1 852,167.1 883.4,179.6 905.4,201.6 965,242.4 1002.6,314.4 1002.6,395.9 1002.6,521.3 911.7,624.7 795.7,624.7 776.9,624.7 758.1,621.6 739.3,615.3 707.8,747 610.7,841.1 497.8,841.1 378.7,841.1 281.5,740.7 256.4,599.7z" />

<glyph unicode="&#xe73d;" glyph-name="cloud-upload" d="M256.4,602.8C240.7,606 225.1,609.1 209.4,609.1 96.6,609.1 2.5,511.9 2.5,389.7 2.5,267.5 93.4,170.3 209.4,170.3 218.8,170.3 225.1,173.4 234.5,173.4L491.5,173.4C482.1,173.4 475.8,176.6 469.6,182.8 463.3,189.1 460.2,198.5 460.2,207.9L460.2,537 363,430.4C347.3,417.9 328.5,417.9 316,430.4 309.7,436.7 306.6,446.1 306.6,455.5 306.6,464.9 309.7,474.3 316,480.6L469.6,646.8 472.8,649.9 475.9,649.9C475.9,649.9,475.9,653,479,653L482.1,653 485.3,653 488.4,653 491.5,653 494.7,653 497.8,653 500.9,653 504.1,653 507.2,653 519.7,649.9 522.8,646.8C522.8,646.8,522.8,643.6,526,643.6L676.5,477.5C689,464.9 689,439.9 676.5,427.3 664,414.7 642,414.7 629.5,427.3L532.3,533.9 532.3,201.6C532.3,189.1 526,179.7 516.6,173.4 510.3,170.3 504.1,167.2 497.8,167.2L770.5,167.2C779.9,164 786.2,164 795.6,164 805,164 811.3,167.2 820.7,167.2 852,167.2 883.4,179.7 905.4,201.7 965,242.5 1002.6,314.5 1002.6,396 1002.6,521.4 911.7,624.8 795.7,624.8 776.9,624.8 758.1,621.7 739.3,615.4 707.8,747 610.7,841.1 497.8,841.1 378.7,841.1 281.5,740.7 256.4,602.8z" />

<glyph unicode="&#xe73e;" glyph-name="warning-message" d="M565,236.9L565,118.1 440,118.1 440,236.8 565,236.8z M565,677.5L565,324.4 440,324.4 440,677.5 565,677.5z M471.3,980.6L8.7,61.9C2.5,49.4 2.5,33.8 8.7,21.3 15,8.8 27.5,2.5 40,2.5L965,2.5C977.5,2.5 990,8.8 996.3,21.3 1002.5,33.8 1002.5,49.4 996.3,61.9L533.8,980.6C527.6,996.2 515,1002.5 502.5,1002.5 490,1002.5 477.5,996.3 471.3,980.6z" />

<glyph unicode="&#xe73f;" glyph-name="cloud" d="M207.6,549.6C207.6,544.7 207.7,539.9 208,535 208.7,522.8 197.6,513.1 184.4,513.4 183.1,513.4 181.9,513.4 180.6,513.4 82.3,513.4 2.5,435.8 2.5,340.2 2.4,244.8 82.4,167 180.6,167L759.5,167C893.6,167 1002.6,273 1002.6,403.4 1002.6,516.2 920.9,610.7 812,634.1 797,637.3 784.2,646.7 778.6,659.9 733.1,766.3 625.6,838 504.3,838 340.7,838 207.6,708.5 207.6,549.6z" />

<glyph unicode="&#xe740;" glyph-name="cloud-private-02" d="M424.4,571.2L424.4,490 580.7,490 580.7,568.1C577.6,611.8 543.2,643.1 502.6,643.1 461.9,643.1 427.5,611.9 424.4,571.2z M611.9,571.2L611.9,493.1 640,493.1 640,293.1 365,293.1 365,493.1 393.1,493.1 393.1,571.2C396.2,627.5 443.1,674.3 502.5,674.3 561.9,674.4 608.8,627.5 611.9,571.2z M255.6,590C240,593.1 224.3,596.2 208.7,596.2 96.2,596.2 2.39999999999998,505.6 2.39999999999998,396.2 2.39999999999998,286.8 96.2,199.3 211.8,196.2 221.2,196.2 227.4,199.3 236.8,199.3L771.2,199.3C780.6,196.2 786.8,196.2 796.2,196.2 805.6,196.2 811.8,199.3 821.2,199.3 852.5,199.3 883.7,211.8 905.6,230.6 965,268.1 1002.5,330.6 1002.5,405.6 1002.5,518.1 911.9,611.8 796.3,611.8 777.5,611.8 758.8,611.8 740,605.6 708.7,724.4 611.9,808.7 499.4,808.7 380.6,808.8 283.8,715 255.6,590z" />

<glyph unicode="&#xe741;" glyph-name="onedrive" d="M504.7,634.5C473.2,629.4 445.6,616 422.9,593.3 390.8,561.2 374.7,521.4 367.8,477.3 367.2,473.8 365.9,472.7 362.6,472.4 341.2,470.7 320.7,465.5 301.2,456.4 267.3,440.6 243.7,415.9 235.3,378.6 229,350.9 231,323.3 238.8,296.2 250.4,256.1 275.1,227.7 315,213.6 333.6,207 352.9,204.9 372.5,204.9L505.4,204.9 906.4,204.9C925.9,204.9 944.2,208.7 960.3,220.2 980.9,235 992.3,255.8 998.2,279.8 1000.1,287.6 1001.1,295.7 1002.5,303.6L1002.5,321.2 1001.3,325.8C998.8,336.8 997.6,348.4 993.6,358.8 979.9,394 952.4,413.3 916.8,422.4 908.4,424.6 908.3,424.4 908.4,433.2 908.7,457.2 904.4,480.2 892.9,501.4 865.8,551.4 822,574.5 766.5,576.6 741.2,577.6 716.8,571.8 693.9,560.8 690.5,559.1 689.1,559.9 686.8,562.6 677.8,573.4 669.1,584.9 658.9,594.5 628.3,623.3 591.5,638.2 549.4,638.3 534.4,638.4 519.4,636.9 504.7,634.5z M503.8,794.3C445.5,780,402.5,745.1,371.5,694.5L368.1,688.8C308.5,718.3 249.7,718.3 194.9,680.2 140.3,642.2 119.1,586.9 122.5,520.7 117,519.6 111.5,518.8 106.2,517.5 24.4,497.4 -4,432.5 3.7,365.7 7.8,329.5 26.8,300.5 55,277.8 79.7,258 107.8,247.7 139.8,248.3 165.9,248.8 191.9,248.4 218,248.4L223.6,248.7 220.7,253.6C197.4,294.1 191.2,337.4 201.4,382.6 211,424.9 237.3,455.1 274.6,476.1 293.5,486.8 313.7,494.5 335.1,498.6 338.8,499.3 340.3,500.9 341.1,504.8 342.8,512.9 345,520.9 347.7,528.7 363.4,574.2 389.4,612.3 430.8,638 478.8,667.8 531.3,677.1 586.7,666.2 627.9,658.1 662.5,637.8 689.4,605.1 692.5,601.4 695.2,597.4 698.2,593.5 720,605.4 743.6,607 767.7,607.8 767,611.9 766.6,615.2 765.9,618.6 750.1,694 708.9,749.6 637.6,780.9 610.8,792.7 583.2,799.4 555,800 552.9,800 550.8,800.1 548.7,800 533.9,799.8 519,798 503.8,794.3z" />

<glyph unicode="&#xe742;" glyph-name="folder-01" d="M66,58.1L939,58.1 1002.5,687.7 2.5,687.7 66,58.1z M103,878.1L23.7,878.1 23.7,809.4 960.1,809.4 960.1,878.1 502.4,878.1 502.4,947 103,947 103,878.1z" />

<glyph unicode="&#xe743;" glyph-name="folder-open" d="M86.9,86.9L921.3,86.9 1002.5,574.4 2.5,574.4 86.9,86.9z M90,805.6L90,693.1 921.3,693.1 921.3,815 424.4,815 424.4,918.1 86.9,918.1 90,805.6z" />

<glyph unicode="&#xe744;" glyph-name="cloud-recycle" d="M400.6,455.5C400.6,436.7 406.9,421 413.2,405.3 425.7,383.4 441.4,367.7 460.2,355.1L466.5,386.5C466.5,386.5 466.5,389.6 469.6,389.6 469.6,389.6 472.8,389.6 472.8,386.5L501,336.3 526.1,286.1 526.1,282.9 523,279.8 482.2,264.1 425.8,242.2C422.6,242.2,419.5,242.2,419.5,245.3L419.5,251.6 432,282.9C400.7,301.7 372.4,329.9 353.7,367.6 344.3,392.7 338,417.8 334.9,442.8 334.9,446 334.9,449.1 338,449.1L394.4,455.3C397.5,452.3,400.6,452.3,400.6,455.5z M673.4,527.6L717.3,483.7 717.3,477.5C717.3,474.3,717.3,474.3,714.2,474.3L682.9,471.2C686,433.6 679.7,392.8 657.8,355.2 645.3,333.3 629.6,314.4 610.8,298.8 607.7,295.6 604.6,295.6 604.6,298.8L570.1,345.8 570.1,349 573.3,352.1C585.8,361.5 595.2,374 604.6,389.7 617.1,411.6 620.3,433.6 620.3,458.7L592.1,449.3C592.1,449.3,589,449.3,589,452.4L589,458.7 614.1,508.9 636,555.9C636,559.1,636,559.1,639.1,559.1L673.4,527.6z M582.4,637.3C585.6,637.3,585.6,634.1,585.6,631L566.8,574.6C566.8,571.5,563.7,571.5,563.7,571.5L560.5,571.5C548,577.8 532.3,580.9 516.6,580.9 491.5,580.9 472.7,571.5 453.9,559L475.8,537.1 475.8,530.8C475.8,527.7,475.8,527.7,472.7,527.7L419.4,524.5 372.4,521.4 369.3,524.5 369.3,527.7 375.6,574.7 388.1,643.7C388.1,643.7 388.1,646.9 391.2,646.9 391.2,646.9 394.4,646.9 394.4,643.7L413.2,615.5C441.4,640.4 479,653 516.6,653 541.7,653 563.7,646.7 582.4,637.3z M256.4,596.6C240.7,599.7 225.1,602.8 209.4,602.8 96.6,602.8 2.5,505.6 2.5,383.4 2.5,261.2 93.4,164 209.4,164 215.7,164 225.1,167.2 234.5,167.2L770.5,167.2C779.9,164 786.2,164 795.6,164 805,164 811.3,167.2 820.7,167.2 852,167.2 883.4,179.7 905.4,201.7 965,242.5 1002.6,314.5 1002.6,396 1002.6,521.4 911.7,624.8 795.7,624.8 776.9,624.8 758.1,621.7 739.3,615.4 707.8,747 610.7,841.1 497.8,841.1 378.7,841.1 281.5,740.7 256.4,596.6z" />

<glyph unicode="&#xe745;" glyph-name="data-import" d="M160.6,502.6L427.3,266.2 427.3,392.3C427.3,392.3 887.5,518.3 1002.5,266.2 1002.5,329.2 960.6,644.5 427.3,644.5L427.3,770.6 160.6,502.6z M2.5,835.9L2.5,169.1 2.5,102.4 602.5,102.4 669.1,102.4 669.1,169.1 669.1,235.8 602.5,235.8 602.5,169.1 69.1,169.1 69.1,835.8 602.6,835.8 602.6,769.1 669.2,769.1 669.2,835.8 669.2,902.5 2.5,902.5 2.5,835.9z" />

<glyph unicode="&#xe746;" glyph-name="text-highlight-color" d="M233.8,321.8L233.8,265.1 14.3,265.1 14.3,18.1 1002.6,18.1 1002.6,265.2 421.2,265.2 507,351 385,473.1 233.8,321.8z M189.5,691.3L189.5,637.6C189.5,631.9 188.2,625.5 186.3,619.7 177.4,593.6 151.8,568 111.6,568 82.9,568 58.6,585.3 58.6,621.6 58.6,677.9 119.8,690.9 177.9,691.3 181.8,691.4 185.7,691.4 189.5,691.3z M570.7,690.1C570.7,679,569.8,668.5,568.2,658.7L567.4,654.3 484.8,571.7 482.4,571.5C480.6,571.4 478.8,571.4 477,571.4 436.1,571.4 403.6,598.2 392.7,637.2 391.4,643.6 390.1,650.6 390.1,657.6L390.1,713C390.1,721.9 392,729.6 393.3,736 404.8,778.8 440.5,805 478.8,805 538.8,805 570.7,752 570.7,690.1z M24.8,822.2L37.6,785.1C59.3,799.2 89.3,808.1 118,808.1 181.2,808.1 188.2,762.1 188.2,736.6L188.2,730.2C68.9,730.9 2.5,690 2.5,615.3 2.5,570.6 34.4,526.5 97,526.5 141,526.5 174.2,548.2 191.5,572.5L193.4,572.5 197.9,533.6 249,533.6C245.2,554.7,243.9,580.8,243.9,607.7L243.9,723.2C243.9,785.1 220.9,849.6 126.4,849.6 87.4,849.6 50.4,838.8 24.8,822.2z M334.6,613.4C334.6,586,333.3,554.7,332.1,533.6L380.6,533.6 383.1,584.7 385,584.7C399.4,559.2,418.7,542.9,442.1,534.2L446.1,532.9 419.2,506 541.4,385.5 993.1,837.2 871.7,958.6 626.1,713 625.7,717.6C617.2,797.3 566.1,849.7 496.7,849.7 447,849.7 411.2,827.4 391.4,792.9L390.1,792.9 390.1,987 334.6,987 334.6,613.4z" />

<glyph unicode="&#xe747;" glyph-name="data-replace" d="M2.5,318.6L2.5,203.9C2.5,182.4,20.1,165,41.6,165L589.4,165C610.9,165,628.5,182.4,628.5,203.9L628.5,318.6C628.5,340.1,610.9,357.7,589.4,357.7L41.6,357.7C20.1,357.7,2.5,340.1,2.5,318.6z M776.3,473.9L675.1,372.6 776.3,271.2 843.3,271.2 766.2,348.3 993.9,348.3 993.9,397.3 766.5,397.3 843.2,474 776.3,473.9z M2.5,562.1L2.5,447.5C2.5,425.9,20.1,408.4,41.6,408.4L589.4,408.4C610.9,408.4,628.5,425.9,628.5,447.5L628.5,562.1C628.5,583.6,610.9,601.2,589.4,601.2L41.6,601.2C20.1,601.2,2.5,583.6,2.5,562.1z M911.4,622.5L683.7,622.5 683.7,573.3 911,573.3 834.2,496.7 901.2,496.9 1002.5,598.1 901.1,699.5 834.3,699.5 911.4,622.5z M162,743.9C162,719.4 142.3,699.4 117.7,699.4 93.3,699.4 73.3,719.3 73.3,743.9 73.3,768.3 93.3,788.3 117.7,788.3 142.3,788.3 162.1,768.4 162,743.9z M2.5,801.1L2.5,686.6C2.5,664.9,20.1,647.5,41.6,647.5L589.4,647.5C610.9,647.5,628.5,664.9,628.5,686.6L628.5,801.1C628.5,822.8,610.9,840.2,589.4,840.2L41.6,840.2C20.1,840.2,2.5,822.8,2.5,801.1z" />

<glyph unicode="&#xe748;" glyph-name="export" d="M734.4,643C200.9,643 159,327.8 159,264.8 274.1,516.8 734.3,390.9 734.3,390.9L734.3,264.8 1001,501.1 734.4,769.1 734.4,643z M1,100.9L667.7,100.9 667.7,234.2 601,234.2 601,167.6 67.6,167.6 67.6,834.4 601,834.4 601,767.6 667.7,767.6 667.7,901 1,901 1,100.9z" />

<glyph unicode="&#xe749;" glyph-name="show" d="M300.1,574.7C300.1,477.2 390.6,398.2 502.4,398.2 614.2,398.2 704.9,477.2 704.9,574.7 704.9,592.5 701.8,609.3 696.2,625.5 767.2,589.5 827.9,541.2 869.6,502.5 793.2,432 654.5,328.2 502.4,328.2 350.3,328.2 211.8,432 135.1,502.5 177.1,541.2 237.6,589.4 308.8,625.5 303.3,609.3 300.2,592.5 300.1,574.7z M2.5,502.5C2.5,502.5 226.3,230.9 502.4,230.9 778.5,230.9 1002.5,502.5 1002.5,502.5 1002.5,502.5 778.5,774.1 502.4,774.1 226.4,774.1 2.5,502.5 2.5,502.5z" />

<glyph unicode="&#xe74a;" glyph-name="tag-01" d="M781.8,502.5C781.8,452.4 741.1,408.6 687.9,408.6 637.8,408.6 594,449.3 594,502.5 594,552.6 634.7,596.4 687.9,596.4 741.2,596.4 785,555.7 781.8,502.5z M21.3,837.4C18.2,837.4 11.9,834.3 8.8,831.1 5.7,827.9 2.5,824.8 2.5,818.6L2.5,189.5C2.5,183.2 5.6,177 8.8,173.9 11.9,170.8 15.1,167.6 21.3,167.6L741.2,164.5C744.3,164.5,750.6,167.6,753.7,170.8L997.8,490C1004.1,496.3,1004.1,508.8,997.8,515.1L759.9,834.3C756.7,837.4,753.6,840.5,747.4,840.5L21.3,837.4z" />

<glyph unicode="&#xe74b;" glyph-name="amazon-01" d="M9.7,226.6C8.5,225.1 7.9,223.4 7.9,221.4 7.9,218.4 9.7,215.2 13.4,211.7 78,146.2 151.3,94.9 233.3,57.9 315.4,21 403.7,2.5 498,2.5 557.6,2.5 619,10.9 682.3,28.1 745.5,45.1 803.6,70.9 856.5,105.3 863,110.3 869.8,115 877.1,119.8 884.1,124.5 891,129.8 897.7,135.7 902.6,139.1 905,143.8 905,149.8 904.5,152.7 903.8,155.5 902.6,157.9 900.9,161.4 897.9,163.6 893.9,164.6 889.8,165.6 885.6,165.1 881.6,163.1 877.1,160.7 872.8,158.8 868.7,157.2 864.6,155.8 860.4,154 856.5,152.1 798.2,126.9 739.8,108.4 681.3,96.3 622.7,84 565.4,77.9 509,77.9 420.5,77.9 334.7,91.1 252.1,117.7 169.3,144.2 93.7,180.9 25.1,227.9 22.3,230 19.6,231 17.1,231 14.2,231 11.8,229.5 9.7,226.6z M899.5,250.2C885.2,248.7 870.8,246 856.5,242.2 840.4,235.7 826.2,227.6 813.4,217.8 808.4,213.8 806.5,210.1 807.3,206.6 808.1,203.2 811,201.4 815.9,201.4 821.7,203.4 828.1,204.4 834.9,204.4 841.9,204.4 849,205.3 856.5,207.3 870.3,208.8 884.3,209.6 898.2,209.6L908.7,209.6C925.8,208.6 936.9,204.2 941.8,196.3 945.1,191.4 946.1,183.4 944.9,172.3 943.8,161.1 941.2,148.8 937.3,135.3 933.3,121.7 929.2,108.1 924.8,94.2L913.1,60.2C911.4,54.3 912.4,50.4 915.8,48.4 919.3,46.4 923.3,47.9 927.6,52.8 939.3,62.6 949.5,74.8 958.5,89 967.4,103.3 974.4,117.7 979.5,132.3 984.8,146.8 989,161.3 992.2,175.5 995.5,189.8 997.1,201.9 997.1,211.7L997.1,217.7C997.1,222.6 996.6,226.7 995.7,229.9 994.8,233.1 993.9,235.7 993.1,237.6 989.9,240.5 984,243.2 975.3,245.8 966.6,248.2 955.4,249.9 941.8,251 936.1,251.5 930.4,251.7 924.7,251.7 916.8,251.7 908.5,251.2 899.5,250.2z M588.3,625.2C588.3,601.8 588.1,580.1 587.4,560.1 586.8,540.1 580.5,519.4 568.7,497.9 555.6,469.4 536.1,451.7 510.3,444.8 508.6,444.8 506.5,444.4 504,443.6 501.7,442.9 498.7,442.5 495.4,442.5 475.4,442.5 459.6,450.5 448.1,466.4 436.6,482.4 430.9,503.6 430.9,530 430.9,563 438.7,588 454.2,604.9 469.9,621.9 488.5,634.4 510.2,642.3 522.1,645.3 534.7,647.3 548,648.3 561.3,649.3 574.9,649.8 588.2,649.8L588.2,625.2z M442.9,989.7C419.9,983.1 398.6,972.8 379,958.9 359.4,945 342.5,927 328.2,905 314,883 303.9,855.8 298.2,823.6 296.7,815.8 297.8,810.2 301.6,806.7 305.3,803.3 309.2,801.1 313.3,800.1L414.1,784.7C419,786.8 422.7,789.8 425.5,794.1 428.3,798.3 430.2,803 430.9,808 435.4,831.4 445.1,849 460.1,860.8 475.1,872.5 491.8,879.4 510.3,881.3L518.2,881.3C528.9,881.3 539.5,878.8 550.2,873.8 560.9,868.9 569.5,860.6 576.2,849.1 583.5,837.2 587.3,823.4 587.7,807.9 588.2,792.4 588.3,777.5 588.3,762.9L588.3,746.5C576.9,744.5 564.6,743 551.7,742 538.7,741 525.2,739.5 511,737.5 489.7,734.5 468.9,730.6 449.1,725.8 429.2,721.1 410.6,714.3 393.2,705.3 359.2,688.8 332.1,664.2 311.9,631.6 291.6,598.8 281.5,558 281.5,509.2 281.5,450 296.2,405.6 325.6,376 355.1,346.4 391.7,331.6 435.3,331.6 462.8,331.6 487.9,334.4 510.4,340.1 527.3,345.8 543.7,354.4 559.7,365.9 575.7,377.5 592,392.9 608.9,412.3L634.1,377C640.8,368.1 652.5,355.2 669.4,338.8 680.1,334.1 689.1,334.6 696.5,340.2 707.2,351 720.7,363.6 736.7,378 752.8,392.4 765.9,405 776,415.8 779.9,419.5 782,424.2 782,429.5 782,434.9 780.4,440.1 777.2,444.9 767.4,458.8 758.2,473.5 750.1,489 742,504.5 737.9,526.4 737.9,554.9L737.9,742 737.9,799.7C737.9,818.2 736.7,835.9 734.2,852.8 731.7,869.6 727.4,885.7 721.1,901.2 714.7,916.5 705.3,930.9 692.6,944 671.1,966 645.6,981.3 616.3,989.8 586.9,998.3 559.4,1002.6 533.7,1002.6L512.4,1002.6C489.1,1000.5,465.9,996.2,442.9,989.7z" />

<glyph unicode="&#xe74c;" glyph-name="principal-02" d="M289.9,55.6L508.7,55.6 508.7,80.6 289.9,80.6 289.9,55.6z M289.9,111.9L508.7,111.9 508.7,136.9 289.9,136.9 289.9,111.9z M364.9,165L508.7,165 508.7,190 364.9,190 364.9,165z M852.4,215L852.4,33.8 571.1,33.8 571.1,211.9 571.1,215 852.4,215z M286.8,215L286.8,211.9C286.8,211.9 318.1,168.1 330.6,165 330.6,165 333.7,190 330.6,215L536.9,215 536.9,33.8 255.5,33.8 255.5,211.9 255.5,215 286.8,215z M196.1,490C196.1,490,183.6,480.6,189.8,465L214.8,399.4C161.7,396.3 133.5,365 133.5,365 58.5,258.8 158.5,205.6 158.5,205.6 189.8,193.1 208.5,196.2 217.9,202.5L217.9,2.5 899.2,2.5 899.2,240 327.4,240 324.3,249.4C346.2,252.5 346.2,280.6 346.2,280.6 355.6,330.6 305.6,371.2 305.6,371.2 293.1,377.4 283.7,383.7 274.3,386.8L271.2,386.8 236.8,480.6C236.8,480.6 230.5,493.1 214.9,493.1 208.6,490 202.4,490 196.1,490z M646.1,536.9L646.1,533.8C680.5,390.1 589.8,380.7 589.8,380.7 446,352.6 477.3,527.6 477.3,527.6L477.3,530.7C480.4,552.6 480.4,577.6 480.4,577.6 571.1,496.3 643,590 643,590 643,568.1 643,549.4 646.1,536.9z M683.6,752.5L686.7,677.5C686.7,677.5 674.2,677.5 661.7,683.7 661.7,683.7 652.3,615 596.1,580.6 596.1,580.6 549.2,543.1 502.3,593.1 502.3,593.1 461.7,636.8 449.2,683.7L427.3,683.7 417.9,749.3C417.9,749.3 580.4,830.5 608.5,918 608.6,918.1 618,824.4 683.6,752.5z M399.3,936.9C305.5,768.1,414.9,583.8,452.4,521.3L455.5,518.2 446.1,515.1C349.2,477.6 302.3,399.5 302.3,399.5 367.9,387 377.3,274.5 377.3,274.5L861.7,274.5C861.7,415.1,733.6,490.1,674.2,518.2L674.2,521.3C711.7,605.7 739.8,715 739.8,715 774.2,965 614.8,955.6 614.8,955.6 583.5,990 549.2,1002.5 521,1002.5 452.4,1002.5 399.3,936.9 399.3,936.9z" />

<glyph unicode="&#xe74d;" glyph-name="password-03-wf" d="M862,221.4L862,182.6 831,201C826.4,203.8 821.3,205.2 816.3,205.4 815.6,205.4 814.9,205.4 814.2,205.4 803.9,205.1 793.9,199.7 788.2,190.1 779.3,175.3 784.2,156.1 799,147.3L832,127.6 799,107.9C784.2,99.1 779.4,79.9 788.2,65.1 794.1,55.2 804.4,49.8 815.1,49.8 820.6,49.8 826.1,51.2 831.1,54.2L861.8,72.5 861.8,33.7C861.8,16.4 875.8,2.4 893.1,2.4 910.4,2.4 924.4,16.4 924.4,33.7L924.4,72.5 955.3,54.1C960.3,51.1 965.9,49.7 971.3,49.7 982,49.7 992.4,55.2 998.2,65 1007.1,79.8 1002.2,99 987.4,107.8L954.4,127.5 987.4,147.2C1002.2,156 1007,175.2 998.2,190 989.4,204.9 970.2,209.8 955.4,200.9L924.5,182.5 924.5,221.3C924.5,238.6 910.5,252.6 893.2,252.6 875.9,252.6 862,238.6 862,221.4z M487,221.4L487,182.6 456.1,201C441.3,209.9 422.1,204.9 413.3,190.1 404.4,175.3 409.3,156.1 424.1,147.3L457.1,127.6 424.1,107.9C409.3,99.1 404.5,79.9 413.3,65.1 419.2,55.2 429.5,49.8 440.2,49.8 445.7,49.8 451.2,51.2 456.2,54.2L486.9,72.5 486.9,33.7C486.9,16.4 500.9,2.4 518.2,2.4 535.5,2.4 549.5,16.4 549.5,33.7L549.5,72.5 580.4,54.1C585.4,51.1 591,49.7 596.4,49.7 607.1,49.7 617.5,55.2 623.3,65 632.2,79.8 627.3,99 612.5,107.8L579.5,127.5 612.5,147.2C627.3,156 632.1,175.2 623.3,190 614.5,204.9 595.3,209.8 580.5,200.9L549.6,182.5 549.6,221.3C549.6,238.6 535.6,252.6 518.3,252.6 501,252.6 487,238.6 487,221.4z M80.5,221.3L80.5,182.5 49.6,200.9C34.8,209.8 15.6,204.8 6.8,190 -2.1,175.2 2.8,156 17.6,147.2L50.6,127.5 17.6,107.8C2.8,99 -2,79.8 6.8,65 12.7,55.1 23,49.7 33.7,49.7 39.2,49.7 44.7,51.1 49.7,54.1L80.6,72.5 80.6,33.7C80.6,16.4 94.6,2.4 111.9,2.4 129.2,2.4 143.2,16.4 143.2,33.7L143.2,72.5 174.1,54.1C179.1,51.1 184.7,49.7 190.1,49.7 200.8,49.7 211.2,55.2 217,65 225.9,79.8 221,99 206.2,107.8L173.2,127.5 206.2,147.2C221,156 225.8,175.2 217,190 208.2,204.9 189,209.8 174.2,200.9L143.3,182.5 143.3,221.3C143.3,238.6 129.3,252.6 112,252.6 94.8,252.6 80.8,238.6 80.5,221.3z M502.7,690L502.7,596.2C502.7,578.9 516.6,564.9 533.9,564.9 551.2,564.9 565.2,578.9 565.2,596.2L565.2,690C565.2,707.3 551.2,721.3 533.9,721.3 516.6,721.3 502.6,707.4 502.7,690z M690.2,752.6L690.2,533.9 377.7,533.9 377.7,752.6 690.2,752.6z M627.6,845.3C627.6,835.9,626.2,826.7,623.6,817.8L622.8,815.2 444.9,815.2 444.3,817.1C441.5,826.1 440.1,835.6 440.1,845.2 440.1,897.5 482.2,940.1 533.9,940.1 585.6,940.1 627.6,897.5 627.6,845.3z M377.6,845.1C377.6,837.2,378.1,829.3,379.3,821.6L380.4,815.1 315.1,815.1 315.1,471.4 752.7,471.4 752.7,815.1 687.3,815.1 688.5,822.2C689.6,829.8 690.1,837.5 690.1,845.2 690.1,932 620,1002.6 533.8,1002.6 447.8,1002.6 377.6,932 377.6,845.1z" />

<glyph unicode="&#xe74e;" glyph-name="paste" d="M595,96.5L795.6,96.5 795.6,124.7 595,124.7 595,96.5z M595,187.4L795.6,187.4 795.6,215.6 595,215.6 595,187.4z M701.5,466.4L701.5,372.4C701.5,372.4,701.5,309.7,770.5,316L852,316 852,55.8C852,52.7,848.8,46.4,842.6,46.4L541.7,46.4C538.5,46.4,532.3,49.6,532.3,55.8L532.3,457C532.3,460.2,535.4,466.4,541.7,466.4L701.5,466.4z M485.3,453.9L485.3,55.8C485.3,27.6,510.4,2.5,538.6,2.5L839.5,2.5C867.7,2.5,892.8,27.6,892.8,55.8L892.8,328.6 855.2,369.3 761.1,469.6 723.5,510.3 541.7,510.3C513.5,510.3,488.4,485.3,485.3,453.9z M519.7,911.6C519.7,883.4 494.6,861.4 466.4,861.4 438.2,861.4 413.1,883.3 413.1,911.6 413.1,939.8 438.2,961.8 466.4,961.8 497.8,961.8 519.7,939.8 519.7,911.6z M369.3,917.9L369.3,911.6 287.8,911.6 287.8,880.3 112.2,880.3 112.2,27.6 438.2,27.6 438.2,30.7C435.1,37,435.1,46.4,435.1,52.6L435.1,102.8 190.6,102.8 190.6,783.1 287.8,783.1 287.8,685.9 645.2,685.9 645.2,783.1 745.5,783.1 745.5,563.6 748.6,563.6 820.7,482.1 820.7,880.2 645.1,880.2 645.1,908.4 563.6,908.4 563.6,914.7C560.4,964.9 519.7,1002.5 466.4,1002.5 416.3,1002.5 372.4,964.9 369.3,917.9z" />

<glyph unicode="&#xe74f;" glyph-name="save" d="M939.6,338.6L750.5,149.6 645.5,254.6 675,284 750.5,208.3 910.1,368 939.6,338.6z M582.6,254.6C582.6,139.1 677.1,44.6 792.5,44.6 908,44.6 1002.5,139.2 1002.5,254.6 1002.5,370 907.9,464.5 792.5,464.5 677.1,464.5 582.6,370.1 582.6,254.6z M518.6,706.7L633.4,706.7 633.4,960.4 518.6,960.4 518.6,706.7z M2.5,881.7L2.5,157.8C2.5,114.3,37.7,79.1,81.2,79.1L612.4,79.1C568.1,124.5 540.7,186.4 540.7,254.7 540.7,393.6 653.7,506.6 792.6,506.6 828.1,506.6 861.9,499.1 892.6,485.8L892.6,838.7 770.8,960.4 680.4,960.4 680.4,715.5C680.4,679.3,651.1,649.9,614.8,649.9L280.2,649.9C244,649.9,214.6,679.2,214.6,715.5L214.6,960.4 81.2,960.4C37.7,960.4,2.5,925,2.5,881.7z" />

<glyph unicode="&#xe750;" glyph-name="synchronize" d="M11.9,496.2C5.7,496.2 2.5,490 2.5,483.7 8.8,424.3 24.4,365 55.6,308.7 102.5,218.1 177.5,152.4 261.8,111.8L224.4,40C221.3,36.9 221.3,30.6 224.4,27.5 227.5,24.4 233.8,24.4 236.9,24.4L386.9,74.4 493.2,108.8C496.3,108.8 499.4,111.9 499.4,115.1 502.5,118.2 502.5,121.3 499.4,124.5L433.8,227.6 361.9,343.2C358.8,349.5 352.5,349.5 349.4,349.5 346.3,346.4 340,343.2 340,340.1L321.3,265.1C274.4,290.1 230.7,330.7 202.5,383.8 183.7,421.3 171.2,458.8 168.1,499.4 168.1,502.5 168.1,505.7 165,508.8 161.9,511.9 161.9,511.9 158.7,511.9L11.9,496.2z M783.8,752.5L727.6,643.1 662,521.2C658.9,518.1 658.9,511.8 662,508.7 665.1,505.6 671.4,505.6 674.5,505.6L749.5,527.5C752.6,471.3 737,415 705.8,365 683.9,327.5 652.7,299.4 621.4,277.5 618.3,277.5 615.2,274.4 615.2,271.3 615.2,268.2 615.2,265 618.3,261.9L702.7,149.4C705.8,143.1 712.1,143.1 718.3,146.3 765.2,180.7 808.9,227.5 843.3,280.7 899.6,368.2 918.3,465.1 912.1,558.8L993.4,561.9C996.5,561.9 1002.8,565 1002.8,568.2 1002.8,574.4 1002.8,577.6 996.5,583.8L877.5,686.9 796.2,758.8C796.2,761.9 793.1,761.9 790,761.9 786.9,758.8 783.8,758.8 783.8,752.5z M199.4,893.1L152.5,958.7C149.4,961.8 143.1,961.8 140,961.8 133.8,961.8 130.6,955.5 130.6,952.4L105.6,799.3 86.9,690C86.9,686.9 86.9,683.7 90,680.6 93.1,677.5 96.3,677.5 99.4,677.5L221.3,683.7 358.8,690C361.9,690 368.2,693.1 368.2,696.3 368.2,699.4 368.2,705.7 365.1,708.8L308.8,761.9C355.7,793.2 411.9,811.9 471.3,811.9 515,811.9 552.6,802.5 590,786.9L599.4,786.9C602.5,786.9,605.6,790,605.6,793.1L658.7,927.5C661.8,933.7 658.7,940 652.4,943.1 596.2,968.1 533.7,980.6 471.2,980.6 368.1,980.6 274.4,946.3 199.4,893.1z" />

<glyph unicode="&#xe751;" glyph-name="love---01" d="M158.5,952.3C24.5,889.5 -34.5,727 26.7,589.3 87.7,452.1 499.9,29.5 502.5,27.8 502.5,27.8 917.3,452 978.3,589.3 1039.5,726.9 980.5,889.4 846.5,952.3 718.8,1012.3 569.3,960 502.5,835.9 454.5,925.1 363.8,977.2 269.1,977.2 232.1,977.2 194.4,969.2 158.5,952.3z" />

</font>
</defs>
</svg>
