<?xml version="1.0" encoding="utf-8"?>
<svg xmlns="http://www.w3.org/2000/svg" height="256" width="256" viewBox="0 0 256 256">
  <g>
    <path id="path1" transform="rotate(0,128,128) translate(0,20.8000030517578) scale(8,8)  " fill="#FFFFFF" d="M3.6000061,17.500002C2.9000092,17.500002 2.4000092,18.000002 2.4000092,18.699999 2.4000092,19.199999 2.6999969,19.6 3.1000061,19.799997L3.1000061,21.400005 4.1000061,21.400005 4.1000061,19.799997C4.5,19.6 4.8000031,19.199999 4.8000031,18.699999 4.9000092,18.1 4.3000031,17.500002 3.6000061,17.500002z M21.100006,15.1L21.100006,15.799997C21.100006,16.1 20.900009,16.400003 20.699997,16.400003 20.5,16.400003 20,16.799997 19.900009,17.000002 19.800003,17.199999 19.800003,17.6 19.900009,18.000002L20.100006,18.900003C20.199997,19.299997 20.800003,20.1 21,20.299999 21.199997,20.500004 21.300003,20.900005 21.100006,21.299999L20,24.000004C19.800003,24.400005 20.600006,24.500004 21,24.400005 21.400009,24.299999 21.699997,24.200001 21.699997,24.200001 21.699997,24.200001 22,24.000004 22.300003,23.700001L23.600006,22.500004C23.900009,22.200001 24.300003,21.500004 24.300003,21.400005 24.300003,21.200001 24.800003,20.900005 25,20.799999 25.100006,20.700001 25.400009,20.299999 25.5,19.900003L25.800003,18.699999C25.900009,18.299997 25.600006,17.699999 25.400009,17.6 25.199997,17.500002 25,16.900003 24.900009,16.799997 24.900009,16.6 24.300003,15.900003 24.100006,15.699999 23.900009,15.500002 23.300003,15.299997 22.900009,15.199999L22,15.1 21.699997,15.1 21.5,15.1z M3.5,12.699999C2.5,12.699999,1.6999969,13.500002,1.6999969,14.500002L1.6999969,15.500002 1.6999969,15.699999 1.6999969,15.799997 5.3000031,15.799997 5.3000031,15.699999 5.3000031,15.500002 5.3000031,14.500002C5.3000031,13.6,4.5,12.699999,3.5,12.699999z M3.5,12.000002C4.8000031,12.000002,5.9000092,13.000002,5.9000092,14.199999L5.9000092,15.400003 5.9000092,15.799997 6,15.799997C6.6999969,15.900003,7.3000031,16.6,7.3000031,17.400003L7.3000031,20.600002C7.3000031,21.500004,6.6000061,22.200001,5.6999969,22.200001L1.6000061,22.200001C0.69999695,22.200001,0,21.500004,0,20.600002L0,17.400003C0,16.699999,0.5,16.1,1.1000061,15.900003L1.1000061,15.799997 1.1000061,15.400003 1.1000061,14.199999C1.1000061,12.900003,2.1999969,12.000002,3.5,12.000002z M11.699997,3.1999979C11.199997,3.1999977 10.5,3.5000007 10.300003,3.5999994 10,3.7999961 9.9000092,4.0999992 9.9000092,4.1999977 9.9000092,4.2999961 9.6999969,4.4000022 9.6000061,4.4000022 9.5,4.4000022 9.4000092,4.6999977 9.3000031,4.7999961 9.4000092,4.9000022 9.6000061,5.0000007 9.8000031,5.0000007 9.9000092,5.0000007 9.6999969,5.4000022 9.6000061,5.5000007 9.4000092,5.5999992 9.4000092,6.0999992 9.4000092,6.2999966 9.4000092,6.4000027 9.4000092,6.5000012 9.3000031,6.5000012 9.1000061,6.5000012 8.8000031,7.0999997 8.9000092,7.2999966 9,7.5999997 9.6999969,7.0000012 9.9000092,6.7999966 10.199997,6.5000012 10.800003,6.0000007 11,5.7999961 11.199997,5.6999977 12,5.7999961 12.199997,5.9000022 12.5,6.0000007 12.900009,6.4000027 13.100006,6.6999981 13.300003,7.0000012 13.5,7.4000027 13.5,7.4000027 13.699997,7.7999966 13.800003,9.1000002 13.800003,9.5000017 13.800003,9.9000032 14.199997,11.1 14.300003,11.400003 14.5,11.699999 14.800003,12.299997 15,12.6L15.800003,13.900003C16,14.299997 17.199997,14.900003 17.600006,15.1 18,15.199999 18.300003,15.199999 18.300003,15.1L18.300003,14.900003C18.300003,14.900003 18,14.6 17.900009,14.400003 17.800003,14.299997 18,13.6 18,13.299997 18.100006,13.1 19.100006,12.799997 19.5,12.699999 19.900009,12.699999 20.300003,13.1 20.400009,13.299997 20.5,13.500002 20.800003,13.6 20.800003,13.6 20.900009,13.6 21,13.1 21,13.000002 21,12.799997 21.600006,11.900003 21.900009,11.6 22.100006,11.299997 23,10.699999 23.300003,10.6 23.5,10.500002 24.5,10.1 24.800003,10.1 25.100006,10.000002 25.100006,9.6000002 25,9.1999986L24.300003,7.5999997C24,7.1999981 23.699997,7.0000012 23.600006,7.0000012 23.5,7.0000012 23.199997,6.5000012 23.100006,6.1999981 23,6.0000007 22.400009,5.6999977 22.199997,5.6999977 22,5.6999977 21.800003,6.5999997 21.699997,7.0000012 21.699997,7.4000027 21.400009,7.6999981 21.300003,7.6999981 21.199997,7.6999981 20.900009,7.5000012 20.600006,7.1999981L19.699997,6.4000027C19.400009,6.0999992 19.300003,5.5000007 19.400009,5.4000022 19.5,5.2999961 20.400009,5.0999992 20.800003,5.0999992 21.100006,5.0999992 21.300003,4.2999961 21.199997,4.0999992 21.199997,3.9000022 20.800003,3.6999977 20.300003,3.6999979L17.400009,3.6999979C17,3.6999977 15.600006,3.4000022 15.199997,3.2999964 14.800003,3.1999977 14,3.2999961 13.800003,3.500001 13.600006,3.5999992 13.100006,3.5999992 12.699997,3.500001 12.300003,3.4000022 12,3.1999977 12,3.1999979z M18.600006,0C26,2.3001439E-07 32,6.0000007 32,13.400003 32,20.799999 26,26.799999 18.600006,26.799999 14.600006,26.799999 11,25.000004 8.6000061,22.299999 9.1000061,21.799999 9.4000092,21.200001 9.4000092,20.500004L9.4000092,17.299997C9.4000092,16.000002,8.4000092,14.900003,7.1000061,14.799997L7.1000061,14.6 7.1000061,13.400003C7.1000061,12.299997 6.4000092,11.299997 5.5,10.699999 6.6999969,4.5999992 12.100006,2.3001439E-07 18.600006,0z" />
  </g>
</svg>

