<?xml version="1.0" encoding="utf-8"?>
<svg xmlns="http://www.w3.org/2000/svg" height="256" width="256" viewBox="0 0 256 256">
  <g>
    <path id="path1" transform="rotate(0,128,128) translate(0,15.2880172729492) scale(8,8)  " fill="#FFFFFF" d="M16.724976,15.560207C18.123962,16.495214 19.645996,17.322227 21.688965,17.562227 25.421997,18.001233 28.495972,16.244212 28.495972,16.244212L25.411987,26.912322C24.61499,27.305324 21.929016,28.475341 18.766968,28.107333 16.674011,27.862336 15.120972,27.019325 13.690979,26.069318z M8.8070068,12.241172C9.1710205,12.240173 9.5490112,12.255172 9.9400024,12.290168 12.054016,12.484171 13.60199,13.404187 15.093018,14.43019L12.059021,24.955301C11.789001,24.766303 9.223999,23.045286 6.8649902,22.835285 3.1920166,22.504279 0.60296631,23.918294 0,24.281297L3.0180054,13.827187C3.0180054,13.827187,5.2839966,12.255172,8.8070068,12.241172z M20.227966,3.3190823C21.632019,4.2540897 23.148987,5.0810941 25.192017,5.321102 28.924988,5.7611016 32,4.0040873 32,4.0040873L28.919983,14.673196C28.117981,15.066199 25.432007,16.230213 22.270996,15.868208 20.177002,15.622204 18.623962,14.7802 17.19397,13.830185z M12.309998,4.4023801E-05C12.674011,-0.00095544281 13.052002,0.015043563 13.442993,0.050043737 15.562012,0.23904491 17.10498,1.1640576 18.596008,2.1900655L15.567017,12.714176C15.291016,12.525172 12.732971,10.804153 10.372986,10.590154 6.7000122,10.263147 4.1060181,11.672166 3.5029907,12.040166L6.5269775,1.5870626C6.5269775,1.5870623,8.7879639,0.011045719,12.309998,4.4023801E-05z" />
  </g>
</svg>

