<?xml version="1.0" encoding="utf-8"?>
<svg xmlns="http://www.w3.org/2000/svg" height="48" width="48" viewBox="0 0 48 48">
  <g>
    <path id="path1" transform="rotate(0,24,24) translate(0,2.60100030899048) scale(1.5,1.5)  " fill="#FFFFFF" d="M3.2330017,21.148024L11.417,21.148024 11.43,21.190016C11.456001,21.271986,11.483002,21.354017,11.512001,21.435011L11.569,21.586989 11.569,22.85298 3.2330017,22.85298z M3.2330017,17.940991L11.569,17.940991 11.569,18.011974 11.504997,18.117016C11.251999,18.563,11.117996,19.057018,11.112999,19.562023L11.113998,19.646008 3.2330017,19.646008z M24.634995,16.416025C24.358002,16.422007,24.113998,16.643992,24.113998,16.943003L24.113998,21.487013C24.113998,21.857008 24.466003,22.13899 24.811005,22.005018 25.298004,21.818007 25.727005,21.557997 26.106995,21.224989 26.791,20.622021 27.123001,19.901989 27.123001,19.021008 27.123001,18.292004 26.906006,17.732004 26.455994,17.305979 26.220993,17.083017 25.753998,16.781015 24.830002,16.448008 24.764999,16.424997 24.699005,16.414988 24.634995,16.416025z M2.5410004,6.5880166L11.966995,6.5880166C11.847,7.1350141,11.636002,7.7229658,11.616997,8.2749682L2.5419998,8.2749682C2.0830002,8.2769824,1.6920013,8.6679736,1.6899948,9.1289731L1.6899948,10.276983 11.669998,10.276983C11.705002,10.398993,11.741997,10.521978,11.780998,10.645026L11.835999,10.80799 11.877998,10.972968C12.068001,11.653998 12.356995,12.333992 12.738998,12.989021 13.195,13.770027 13.990997,14.599984 14.904999,15.286996L15.099998,15.429026 1.6899948,15.429026 1.6899948,23.266005C1.6920013,23.724989,2.0830002,24.11598,2.5429993,24.120009L13.100998,24.120009 13.278,24.315018C13.696999,24.763016,14.153,25.166031,14.640999,25.516983L14.68,25.544022 15.095001,25.807022 2.5419998,25.807022C1.1429977,25.802017,0.0039978027,24.662979,0,23.266981L0.0019989014,9.1289731C0.0039978027,7.7310224,1.1429977,6.5910073,2.5410004,6.5880166z M20.168747,6.3744612C20.122061,6.3764268 20.074247,6.3860055 20.027,6.4039956 19.566002,6.5769692 19.170998,6.80402 18.848,7.0839887 18.265999,7.5899702 17.981995,8.159978 17.981995,8.8280078 17.981995,9.4970151 18.219002,10.039984 18.699997,10.489019 19.010002,10.776008 19.463997,11.036017 20.056999,11.265998 20.381996,11.391975 20.696999,11.104987 20.696999,10.755988L20.696999,6.9320107C20.696999,6.6369668 20.478996,6.3889809 20.214996,6.3750039 20.199747,6.3739968 20.184311,6.3738061 20.168747,6.3744612z M22.156998,0L22.653992,0C23.459991,-6.4370397E-08,24.113998,0.653992,24.113998,1.4599618L24.113998,1.8029794C24.113998,2.2399915 24.477005,2.5709854 24.908005,2.6459976 26.291992,2.8809832 27.457001,3.2999898 28.378998,3.895022 29.796997,4.8049956 30.733994,6.0319858 31.167999,7.5460249 31.388,8.3150073 30.807999,9.0549985 30.013,9.1469784L28.035004,9.3770199C27.235001,9.4699765 26.533997,8.9060107 26.250992,8.1510058 26.067993,7.6629682 25.807999,7.2749677 25.464996,6.9790078 25.268005,6.8090249 25.039993,6.659977 24.778992,6.5330239 24.459991,6.377018 24.113998,6.6499673 24.113998,7.0050088L24.113998,11.432014C24.113998,11.860969 24.427994,12.224007 24.847,12.310982 25.835999,12.51899 26.526001,12.687996 26.938995,12.825996 28.048004,13.203011 28.970993,13.672981 29.684998,14.224008 30.419998,14.792001 30.996002,15.47999 31.395004,16.266977 31.796005,17.062021 32,17.930004 32,18.849987 32,20.849987 31.168991,22.537001 29.533005,23.864027 28.279999,24.88002 26.729996,25.529007 24.910004,25.80098 24.481003,25.865006 24.113998,26.190994 24.113998,26.623978L24.113998,27.072037C24.113998,27.878985,23.459991,28.532,22.653992,28.532L22.156998,28.532C21.349991,28.532,20.696999,27.878985,20.696999,27.072037L20.696999,26.62001C20.696999,26.310013,20.514999,26.050003,20.255997,25.901993L18.696999,25.684036C17.945999,25.469009,17.596001,25.386002,16.709,24.930008L15.577995,24.214003C15.043999,23.831007 14.554001,23.370985 14.112999,22.833998 13.422997,21.995009 12.964996,20.998974 12.743996,19.865002 12.584,19.04298 13.18,18.27998 14.011002,18.159985L15.842995,17.893993C16.649002,17.776987 17.372002,18.344006 17.589996,19.128002 17.824997,19.969982 18.154999,20.60603 18.580002,21.024977 19.004997,21.440016 19.466995,21.755995 19.975998,21.977003 20.319,22.125013 20.696999,21.862013 20.696999,21.487013L20.696999,16.247995C20.696999,15.953989 20.552002,15.688974 20.326996,15.52302 20.326996,15.52302 18.589996,15.461985 17.298996,14.870004 16.008995,14.279 14.670998,13.114998 14.125,12.179999 13.457001,11.03498 13.106995,9.7570248 13.243996,8.5849658 13.353996,7.6419721 13.379997,7.4279829 13.682999,6.6820107 13.987,5.9359775 14.920998,4.7399932 16.032997,3.9899927 17.008995,3.3269673 18.302002,2.8770159 19.962997,2.6270157 20.375999,2.5650039 20.696999,2.219972 20.696999,1.8029794L20.696999,1.4599618C20.696999,0.653992,21.349991,-6.4370397E-08,22.156998,0z" />
  </g>
</svg>

