<?xml version="1.0" encoding="utf-8"?>
<svg xmlns="http://www.w3.org/2000/svg" height="48" width="48" viewBox="0 0 48 48">
  <g>
    <path id="path1" transform="rotate(0,24,24) translate(0,9.71923007667011) scale(1.50000116229147,1.50000116229147)  " fill="#FFFFFF" d="M17.497885,5.1716477C18.84586,5.1746537 20.022874,5.6486647 21.002923,6.5716927 21.33093,6.8796989 21.606932,7.2446987 21.895938,7.5917079 21.968936,7.6787154 22.013921,7.7037255 22.123906,7.6507151 22.856946,7.2977092 23.638936,7.1127068 24.447964,7.1436984 26.223922,7.2107012 27.624936,7.9477198 28.492985,9.5487587 28.859994,10.224786 28.997994,10.962796 28.988961,11.729815 28.98597,12.013833 28.989999,12.007821 29.258984,12.076823 30.396018,12.36983 31.277009,12.98685 31.715001,14.112887 31.845008,14.446895 31.881995,14.815907 31.962989,15.168913L31.999976,15.316912 31.999976,15.87993C31.954993,16.134941 31.923987,16.391936 31.861975,16.64295 31.672032,17.411967 31.308991,18.077984 30.649012,18.549996 30.133015,18.918001 29.548964,19.042013 28.923959,19.041006L16.092843,19.040014 11.840788,19.040014C11.213829,19.040014 10.595781,18.973011 10.000805,18.761 8.7247913,18.307985 7.9337685,17.398966 7.5637696,16.116936 7.3137672,15.250916 7.2487643,14.36689 7.4507925,13.480867 7.7207534,12.288835 8.4757659,11.495815 9.5598218,10.991804 10.182813,10.701788 10.839802,10.533784 11.524806,10.480789 11.630825,10.471787 11.672818,10.437789 11.690823,10.32478 11.909819,8.913748 12.424839,7.639713 13.452802,6.6136858 14.179861,5.8886764 15.064818,5.4586575 16.071847,5.2956588 16.541882,5.2196528 17.021868,5.1706559 17.497885,5.1716477z M17.480044,0.00035633997C17.547765,-0.0003724097 17.61538,1.7653134E-05 17.682885,0.0015169607 18.583894,0.020514548 19.465861,0.23553165 20.324877,0.61254043 22.604928,1.6145648 23.923911,3.3926103 24.428921,5.8056666 24.450955,5.9116718 24.464932,6.0186693 24.486905,6.1496846 23.715901,6.1746795 22.959912,6.2256753 22.261908,6.6076891 22.166936,6.4826858 22.077885,6.3566906 21.979922,6.2376844 21.120906,5.1896536 20.011887,4.5416419 18.693881,4.2816255 16.920853,3.9316256 15.241821,4.2296221 13.704819,5.1836564 12.380832,6.0056683 11.54983,7.225701 11.046835,8.6817476 10.959799,8.9317533 10.88979,9.1887485 10.835773,9.4467661 10.81081,9.5707628 10.762775,9.6227657 10.644792,9.6457617 9.959789,9.7777683 9.3158004,10.023777 8.7097766,10.365781 7.516772,11.039809 6.6737463,12.003823 6.3667366,13.358869 6.0397685,14.805897 6.2377684,16.190943 6.9827707,17.485974L7.0747511,17.643967 6.894757,17.651978C6.0607645,17.65297 5.2277486,17.639969 4.3937566,17.655976 3.36976,17.674975 2.4707036,17.346962 1.6816947,16.712944 0.77769416,15.985935 0.17069376,15.057903 0.038673409,13.898876 -0.20730057,11.759829 0.70072811,9.6827652 3.3187342,9.0437557 3.4887185,9.0027544 3.6627314,8.9747545 3.839735,8.940757 3.7317629,6.8226907 4.411762,5.0506422 6.1577504,3.8356149 7.9107578,2.6155822 9.7907808,2.6165895 11.698819,3.5606141L11.808805,3.378602C12.800819,1.7585657 14.177847,0.64153267 16.042855,0.18352843 16.526715,0.065391794 17.005996,0.0054589812 17.480044,0.00035633997z" />
  </g>
</svg>

