<?xml version="1.0" encoding="utf-8"?>
<svg xmlns="http://www.w3.org/2000/svg" height="256" width="256" viewBox="0 0 256 256">
  <g>
    <path id="path1" transform="rotate(0,128,128) translate(6.40000152587891,0) scale(8,8)  " fill="#FFFFFF" d="M10.000012,17.700012L10.800001,17.700012C10.899977,20,11.399977,26.300003,13.500016,28.600006L13.599992,28.700012 14.000017,21.700012 13.000016,20.900009 15.300007,18.900009 17.500021,20.800003 16.500021,21.700012 16.899984,29C17.099996,28.900009 17.200033,28.800003 17.399984,28.600006 17.399984,28.600006 20.500025,23.5 20.1,17.700012L20.399988,17.700012C25.899994,17.700012,30.399999,22.200012,30.399999,27.700012L30.399999,32 0,32 0,27.700012C2.2644235E-07,22.100006,4.5000055,17.700012,10.000012,17.700012z M15.300007,0C19.30001,0 22.500026,3.1000061 22.500026,6.9000092 22.500026,8.5 21.89999,10 21.000025,11.100006L21.000025,8.7000122C21.000025,8.7000122 20.700037,5.7000122 17.599996,6.3000031 17.599996,6.3000031 14.200029,8.5 10.500013,6.5 10.500013,6.5 9.299999,8.5 9.8,11.400009 8.7000225,10.200012 8.0000098,8.6000061 8.0000098,6.9000092 8.0000098,3.1000061 11.300002,0 15.300007,0z" />
  </g>
</svg>

