<?xml version="1.0" encoding="utf-8"?>
<svg xmlns="http://www.w3.org/2000/svg" height="48" width="48" viewBox="0 0 48 48">
  <g>
    <path id="path1" transform="rotate(0,24,24) translate(0,8.43574296063722) scale(1.4999544038328,1.4999544038328)  " fill="#FFFFFF" d="M17.014116,16.036004C17.055116,16.507001 17.191114,17.101996 17.576109,17.601994 18.073103,18.249989 18.914093,18.636987 20.077078,18.752986 20.614071,18.748986 22.862043,18.577989 23.591034,16.036004z M8.4079626,16.036004C9.1459491,18.607987,11.437908,18.752986,11.939899,18.752986L11.939899,19.75298 11.949898,18.752986C13.071878,18.645987 13.929863,18.25299 14.432853,17.589993 14.810847,17.090997 14.945844,16.502 14.985843,16.036004z M6.1200044,14.036015L15.213138,14.036015 16.78581,14.036015 25.879005,14.036015 25.781006,15.127008C25.376011,19.567983,21.993053,20.752974,20.059078,20.752974L19.995079,20.751975C18.274788,20.592601,16.995701,20.00608,16.138046,19.003949L15.999492,18.831954 15.861099,19.003949C15.004495,20.006064,13.728991,20.592349,12.065897,20.747975L11.939899,20.752974C10.005934,20.752974,6.6229951,19.567983,6.2190025,15.127008z M12.309545,1.9999997L9.7505491,6.8930034C9.5955179,7.1880474,9.305536,7.3860454,8.9745376,7.4240093L4.1854684,7.9540386 2.7334218,10.466001 29.266815,10.466001 27.814768,7.9540386 23.025699,7.4240093C22.694702,7.3860454,22.404718,7.1880474,22.250725,6.8930034L19.690691,1.9999997z M11.704556,0L20.295681,0C20.668672,1.9224217E-07,21.00968,0.20599378,21.181679,0.53601076L23.775711,5.4940171 28.537802,6.0220322C28.852808,6.0570054,29.133817,6.2399888,29.292816,6.5159893L31.86585,10.966001C32.045847,11.275022 32.045847,11.656003 31.866827,11.966001 31.687809,12.275021 31.357849,12.466 31.000849,12.466L1.0004262,12.466C0.64238906,12.466 0.31236729,12.275021 0.13340973,11.966001 -0.044632341,11.656003 -0.044632341,11.275022 0.13438632,10.966001L2.7083972,6.5159893C2.8664193,6.2399888,3.1474292,6.0570054,3.4624357,6.0220322L8.2245271,5.4940171 10.818558,0.53601076C10.990557,0.20599378,11.332542,1.9224217E-07,11.704556,0z" />
  </g>
</svg>

